ISO-10303-21;
HEADER;
FILE_DESCRIPTION (( 'STEP AP214' ),
    '1' );
FILE_NAME ('PCB-1094M4.STEP',
    '2025-05-01T17:51:49',
    ( '' ),
    ( '' ),
    'SwSTEP 2.0',
    'SolidWorks 2024',
    '' );
FILE_SCHEMA (( 'AUTOMOTIVE_DESIGN' ));
ENDSEC;

DATA;
#1 = CARTESIAN_POINT ( 'NONE',  ( -2.949999999999999734, -3.238882439323785217E-16, 1.000000000000000000 ) ) ;
#2 = EDGE_CURVE ( 'NONE', #258, #798, #516, .T. ) ;
#3 = CARTESIAN_POINT ( 'NONE',  ( 0.000000000000000000, 0.000000000000000000, 9.199999999999999289 ) ) ;
#4 = ORIENTED_EDGE ( 'NONE', *, *, #492, .F. ) ;
#5 = LINE ( 'NONE', #797, #81 ) ;
#6 = PLANE ( 'NONE',  #306 ) ;
#7 = EDGE_CURVE ( 'NONE', #674, #770, #98, .T. ) ;
#8 = FACE_OUTER_BOUND ( 'NONE', #37, .T. ) ;
#9 = VERTEX_POINT ( 'NONE', #862 ) ;
#10 = DIRECTION ( 'NONE',  ( -0.000000000000000000, -0.000000000000000000, -1.000000000000000000 ) ) ;
#11 = LINE ( 'NONE', #382, #526 ) ;
#12 = CARTESIAN_POINT ( 'NONE',  ( -2.480212026877643527, 0.000000000000000000, 1.000000000000000000 ) ) ;
#13 = DIRECTION ( 'NONE',  ( -0.000000000000000000, -0.000000000000000000, -1.000000000000000000 ) ) ;
#14 = VECTOR ( 'NONE', #353, 1000.000000000000000 ) ;
#15 = ORIENTED_EDGE ( 'NONE', *, *, #109, .F. ) ;
#16 = VECTOR ( 'NONE', #54, 1000.000000000000000 ) ;
#17 = DIRECTION ( 'NONE',  ( 1.000000000000000000, 0.000000000000000000, 0.000000000000000000 ) ) ;
#18 = CARTESIAN_POINT ( 'NONE',  ( -3.950000000000000178, -3.950000000000000178, 1.000000000000000000 ) ) ;
#19 = CARTESIAN_POINT ( 'NONE',  ( -3.950000000000000178, 3.950000000000000178, 0.000000000000000000 ) ) ;
#20 = ADVANCED_FACE ( 'NONE', ( #505 ), #183, .T. ) ;
#21 = ORIENTED_EDGE ( 'NONE', *, *, #155, .F. ) ;
#22 = LINE ( 'NONE', #646, #440 ) ;
#23 = LINE ( 'NONE', #587, #335 ) ;
#24 = DIRECTION ( 'NONE',  ( 1.000000000000000000, 1.097926250618232396E-16, -0.000000000000000000 ) ) ;
#25 = ORIENTED_EDGE ( 'NONE', *, *, #39, .T. ) ;
#26 = EDGE_CURVE ( 'NONE', #485, #621, #647, .T. ) ;
#27 = CARTESIAN_POINT ( 'NONE',  ( 2.974999999999998757, -1.507938362238315272E-11, 0.0003125488433897481797 ) ) ;
#28 = ORIENTED_EDGE ( 'NONE', *, *, #500, .T. ) ;
#29 =( LENGTH_UNIT ( ) NAMED_UNIT ( * ) SI_UNIT ( .MILLI., .METRE. ) );
#30 = EDGE_LOOP ( 'NONE', ( #419, #835 ) ) ;
#31 = AXIS2_PLACEMENT_3D ( 'NONE', #383, #369, #93 ) ;
#32 = AXIS2_PLACEMENT_3D ( 'NONE', #34, #461, #471 ) ;
#33 = EDGE_CURVE ( 'NONE', #430, #375, #229, .T. ) ;
#34 = CARTESIAN_POINT ( 'NONE',  ( -8.673617379884035472E-16, 8.673617379884035472E-16, 1.000000000000000000 ) ) ;
#35 = AXIS2_PLACEMENT_3D ( 'NONE', #840, #67, #282 ) ;
#36 = DIRECTION ( 'NONE',  ( -1.097926250618232273E-16, 1.000000000000000000, -0.000000000000000000 ) ) ;
#37 = EDGE_LOOP ( 'NONE', ( #869, #357, #549, #398 ) ) ;
#38 = LINE ( 'NONE', #666, #184 ) ;
#39 = EDGE_CURVE ( 'NONE', #246, #66, #23, .T. ) ;
#40 = CARTESIAN_POINT ( 'NONE',  ( -3.000000000000000888, 8.673617379884035472E-16, 1.000000000000000000 ) ) ;
#41 = CARTESIAN_POINT ( 'NONE',  ( -2.949999999999999734, 0.7500000000000004441, 12.19999999999999929 ) ) ;
#42 = ORIENTED_EDGE ( 'NONE', *, *, #99, .F. ) ;
#43 = CARTESIAN_POINT ( 'NONE',  ( -3.950000000000000178, -3.950000000000000178, 1.000000000000000000 ) ) ;
#44 = CARTESIAN_POINT ( 'NONE',  ( -2.000000000000000888, 8.673617379884035472E-16, 1.000000000000000000 ) ) ;
#45 = CARTESIAN_POINT ( 'NONE',  ( -2.949999999999999289, -0.7499999999999995559, 12.19999999999999929 ) ) ;
#46 = ORIENTED_EDGE ( 'NONE', *, *, #385, .T. ) ;
#47 = VECTOR ( 'NONE', #892, 1000.000000000000000 ) ;
#48 = CARTESIAN_POINT ( 'NONE',  ( -2.000000000000000888, 8.673617379884035472E-16, 1.000000000000000000 ) ) ;
#49 = CARTESIAN_POINT ( 'NONE',  ( 2.950000000000000178, -0.7499999999999995559, 12.19999999999999929 ) ) ;
#50 = DIRECTION ( 'NONE',  ( 1.000000000000000000, 0.000000000000000000, 0.000000000000000000 ) ) ;
#51 = ORIENTED_EDGE ( 'NONE', *, *, #465, .F. ) ;
#52 = DIRECTION ( 'NONE',  ( 0.000000000000000000, 0.000000000000000000, -1.000000000000000000 ) ) ;
#53 = ORIENTED_EDGE ( 'NONE', *, *, #400, .T. ) ;
#54 = DIRECTION ( 'NONE',  ( 1.097926250618232273E-16, -1.000000000000000000, 0.000000000000000000 ) ) ;
#55 = EDGE_CURVE ( 'NONE', #770, #816, #610, .T. ) ;
#56 = EDGE_LOOP ( 'NONE', ( #635, #664, #191, #501 ) ) ;
#57 = PLANE ( 'NONE',  #392 ) ;
#58 = VERTEX_POINT ( 'NONE', #12 ) ;
#59 = CARTESIAN_POINT ( 'NONE',  ( 2.950000000000000178, 3.950000000000000178, 0.000000000000000000 ) ) ;
#60 = ORIENTED_EDGE ( 'NONE', *, *, #665, .T. ) ;
#61 = CARTESIAN_POINT ( 'NONE',  ( 3.950000000000001954, 0.7500000000000013323, 12.19999999999999929 ) ) ;
#62 = EDGE_CURVE ( 'NONE', #349, #485, #377, .T. ) ;
#63 = AXIS2_PLACEMENT_3D ( 'NONE', #853, #701, #559 ) ;
#64 = DIRECTION ( 'NONE',  ( 0.000000000000000000, 0.000000000000000000, -1.000000000000000000 ) ) ;
#65 = AXIS2_PLACEMENT_3D ( 'NONE', #631, #122, #68 ) ;
#66 = VERTEX_POINT ( 'NONE', #527 ) ;
#67 = DIRECTION ( 'NONE',  ( -1.224646799147353207E-16, 1.000000000000000000, 0.000000000000000000 ) ) ;
#68 = DIRECTION ( 'NONE',  ( -1.000000000000000000, 0.000000000000000000, 0.000000000000000000 ) ) ;
#69 = CARTESIAN_POINT ( 'NONE',  ( -3.950000000000000178, -3.950000000000000178, 9.199999999999999289 ) ) ;
#70 = ADVANCED_FACE ( 'NONE', ( #154 ), #736, .F. ) ;
#71 = EDGE_LOOP ( 'NONE', ( #886, #642, #777, #235 ) ) ;
#72 = EDGE_LOOP ( 'NONE', ( #334, #202, #320, #163 ) ) ;
#73 = DIRECTION ( 'NONE',  ( 0.000000000000000000, 0.000000000000000000, -1.000000000000000000 ) ) ;
#74 = VERTEX_POINT ( 'NONE', #792 ) ;
#75 = CARTESIAN_POINT ( 'NONE',  ( 0.000000000000000000, 0.000000000000000000, 1.000000000000000000 ) ) ;
#76 = LINE ( 'NONE', #439, #848 ) ;
#77 = ORIENTED_EDGE ( 'NONE', *, *, #2, .F. ) ;
#78 = VECTOR ( 'NONE', #814, 1000.000000000000000 ) ;
#79 = AXIS2_PLACEMENT_3D ( 'NONE', #511, #791, #158 ) ;
#80 = CARTESIAN_POINT ( 'NONE',  ( 2.950000000000000178, -0.7499999999999995559, 12.19999999999999929 ) ) ;
#81 = VECTOR ( 'NONE', #517, 1000.000000000000000 ) ;
#82 = EDGE_CURVE ( 'NONE', #251, #455, #103, .T. ) ;
#83 = DIRECTION ( 'NONE',  ( -0.000000000000000000, -0.000000000000000000, -1.000000000000000000 ) ) ;
#84 = CARTESIAN_POINT ( 'NONE',  ( 2.950000000000000622, -0.7499999999999988898, 9.199999999999999289 ) ) ;
#85 = VERTEX_POINT ( 'NONE', #324 ) ;
#86 = FACE_OUTER_BOUND ( 'NONE', #287, .T. ) ;
#87 = DIRECTION ( 'NONE',  ( -0.000000000000000000, 1.000000000000000000, -0.000000000000000000 ) ) ;
#88 = ORIENTED_EDGE ( 'NONE', *, *, #62, .F. ) ;
#89 = DIRECTION ( 'NONE',  ( 1.000000000000000000, 0.000000000000000000, -0.000000000000000000 ) ) ;
#90 = ORIENTED_EDGE ( 'NONE', *, *, #690, .F. ) ;
#91 = DIRECTION ( 'NONE',  ( -1.000000000000000000, 0.000000000000000000, 0.000000000000000000 ) ) ;
#92 = EDGE_CURVE ( 'NONE', #375, #58, #256, .T. ) ;
#93 = DIRECTION ( 'NONE',  ( -1.000000000000000000, 0.000000000000000000, 0.000000000000000000 ) ) ;
#94 = LINE ( 'NONE', #721, #715 ) ;
#95 = ORIENTED_EDGE ( 'NONE', *, *, #344, .T. ) ;
#96 = VECTOR ( 'NONE', #813, 1000.000000000000000 ) ;
#97 = DIRECTION ( 'NONE',  ( -1.000000000000000000, -0.000000000000000000, -0.000000000000000000 ) ) ;
#98 = LINE ( 'NONE', #18, #728 ) ;
#99 = EDGE_CURVE ( 'NONE', #826, #378, #894, .T. ) ;
#100 = DIRECTION ( 'NONE',  ( 1.097926250618232396E-16, -1.000000000000000000, 0.000000000000000000 ) ) ;
#101 = ORIENTED_EDGE ( 'NONE', *, *, #685, .F. ) ;
#102 = DIRECTION ( 'NONE',  ( -0.000000000000000000, -0.000000000000000000, -1.000000000000000000 ) ) ;
#103 = LINE ( 'NONE', #159, #288 ) ;
#104 = ORIENTED_EDGE ( 'NONE', *, *, #590, .T. ) ;
#105 = EDGE_CURVE ( 'NONE', #464, #776, #901, .T. ) ;
#106 = DIRECTION ( 'NONE',  ( 0.000000000000000000, -1.000000000000000000, 0.000000000000000000 ) ) ;
#107 = ORIENTED_EDGE ( 'NONE', *, *, #561, .T. ) ;
#108 = VECTOR ( 'NONE', #672, 1000.000000000000000 ) ;
#109 = EDGE_CURVE ( 'NONE', #9, #709, #609, .T. ) ;
#110 = AXIS2_PLACEMENT_3D ( 'NONE', #786, #157, #443 ) ;
#111 = CARTESIAN_POINT ( 'NONE',  ( -3.950000000000000178, -3.950000000000000178, 1.000000000000000000 ) ) ;
#112 = LINE ( 'NONE', #263, #78 ) ;
#113 = ORIENTED_EDGE ( 'NONE', *, *, #857, .T. ) ;
#114 = DIRECTION ( 'NONE',  ( 1.000000000000000000, 0.000000000000000000, 0.000000000000000000 ) ) ;
#115 = CARTESIAN_POINT ( 'NONE',  ( 3.950000000000001954, 0.7500000000000013323, 12.19999999999999929 ) ) ;
#116 = ORIENTED_EDGE ( 'NONE', *, *, #333, .F. ) ;
#117 = CARTESIAN_POINT ( 'NONE',  ( -2.950000000000000178, -3.950000000000000178, 1.000000000000000000 ) ) ;
#118 = LINE ( 'NONE', #678, #847 ) ;
#119 = ADVANCED_FACE ( 'NONE', ( #830 ), #180, .T. ) ;
#120 = ORIENTED_EDGE ( 'NONE', *, *, #205, .T. ) ;
#121 = VECTOR ( 'NONE', #223, 1000.000000000000000 ) ;
#122 = DIRECTION ( 'NONE',  ( -0.000000000000000000, -0.000000000000000000, -1.000000000000000000 ) ) ;
#123 = DIRECTION ( 'NONE',  ( 1.000000000000000000, 0.000000000000000000, 0.000000000000000000 ) ) ;
#124 = CIRCLE ( 'NONE', #232, 2.480212026877643527 ) ;
#125 = ORIENTED_EDGE ( 'NONE', *, *, #601, .F. ) ;
#126 = DIRECTION ( 'NONE',  ( 0.000000000000000000, 0.000000000000000000, -1.000000000000000000 ) ) ;
#127 = ORIENTED_EDGE ( 'NONE', *, *, #266, .F. ) ;
#128 = FACE_OUTER_BOUND ( 'NONE', #898, .T. ) ;
#129 = EDGE_LOOP ( 'NONE', ( #563, #617, #21, #637, #113, #381, #346, #629, #624, #426 ) ) ;
#130 = LINE ( 'NONE', #221, #16 ) ;
#131 = EDGE_CURVE ( 'NONE', #430, #697, #755, .T. ) ;
#132 = ORIENTED_EDGE ( 'NONE', *, *, #174, .F. ) ;
#133 = FACE_BOUND ( 'NONE', #291, .T. ) ;
#134 = CARTESIAN_POINT ( 'NONE',  ( 0.000000000000000000, 0.000000000000000000, 3.000000000000000000 ) ) ;
#135 = VERTEX_POINT ( 'NONE', #401 ) ;
#136 = ADVANCED_FACE ( 'NONE', ( #187 ), #675, .F. ) ;
#137 = VECTOR ( 'NONE', #910, 1000.000000000000000 ) ;
#138 = CARTESIAN_POINT ( 'NONE',  ( 2.950000000000000178, 3.950000000000000178, 9.199999999999999289 ) ) ;
#139 = CIRCLE ( 'NONE', #729, 1.000000000000000000 ) ;
#140 = VECTOR ( 'NONE', #882, 1000.000000000000000 ) ;
#141 = ORIENTED_EDGE ( 'NONE', *, *, #400, .F. ) ;
#142 = FACE_OUTER_BOUND ( 'NONE', #556, .T. ) ;
#143 = DIRECTION ( 'NONE',  ( -0.000000000000000000, -0.000000000000000000, 1.000000000000000000 ) ) ;
#144 = EDGE_LOOP ( 'NONE', ( #173, #541, #781, #25 ) ) ;
#145 = CARTESIAN_POINT ( 'NONE',  ( -2.950000000000000178, 3.950000000000000178, 9.199999999999999289 ) ) ;
#146 = EDGE_LOOP ( 'NONE', ( #475, #4, #758, #170 ) ) ;
#147 = CARTESIAN_POINT ( 'NONE',  ( -2.975000000000459721, -0.1818319606500671537, 0.0003125488434012585037 ) ) ;
#148 = CARTESIAN_POINT ( 'NONE',  ( 3.950000000000000178, 3.950000000000000178, 9.199999999999999289 ) ) ;
#149 = ORIENTED_EDGE ( 'NONE', *, *, #92, .F. ) ;
#150 = LINE ( 'NONE', #19, #806 ) ;
#151 = FACE_OUTER_BOUND ( 'NONE', #144, .T. ) ;
#152 = CARTESIAN_POINT ( 'NONE',  ( -3.950000000000000178, 3.950000000000000178, 9.199999999999999289 ) ) ;
#153 = VECTOR ( 'NONE', #212, 1000.000000000000000 ) ;
#154 = FACE_OUTER_BOUND ( 'NONE', #846, .T. ) ;
#155 = EDGE_CURVE ( 'NONE', #455, #339, #118, .T. ) ;
#156 = CIRCLE ( 'NONE', #35, 1.000000000000000000 ) ;
#157 = DIRECTION ( 'NONE',  ( 0.000000000000000000, 0.000000000000000000, -1.000000000000000000 ) ) ;
#158 = DIRECTION ( 'NONE',  ( -1.000000000000000000, 0.000000000000000000, -0.000000000000000000 ) ) ;
#159 = CARTESIAN_POINT ( 'NONE',  ( 3.950000000000000178, -3.950000000000000178, 9.199999999999999289 ) ) ;
#160 = B_SPLINE_CURVE_WITH_KNOTS ( 'NONE', 3,
 ( #773, #431, #703, #356 ),
 .UNSPECIFIED., .F., .F.,
 ( 4, 4 ),
 ( 0.0005306632162348775628, 0.001076159098193496446 ),
 .UNSPECIFIED. ) ;
#161 = DIRECTION ( 'NONE',  ( -1.000000000000000000, 0.000000000000000000, 0.000000000000000000 ) ) ;
#162 = CARTESIAN_POINT ( 'NONE',  ( 2.950000000000000622, 0.7500000000000013323, 12.19999999999999929 ) ) ;
#163 = ORIENTED_EDGE ( 'NONE', *, *, #205, .F. ) ;
#164 = CARTESIAN_POINT ( 'NONE',  ( 2.000000000000000444, 1.112291097817875027E-15, 3.000000000000000000 ) ) ;
#165 = ORIENTED_EDGE ( 'NONE', *, *, #757, .F. ) ;
#166 = ADVANCED_FACE ( 'NONE', ( #739 ), #752, .F. ) ;
#167 = CARTESIAN_POINT ( 'NONE',  ( 3.950000000000000178, -3.950000000000000178, 9.199999999999999289 ) ) ;
#168 = ORIENTED_EDGE ( 'NONE', *, *, #857, .F. ) ;
#169 = LINE ( 'NONE', #864, #441 ) ;
#170 = ORIENTED_EDGE ( 'NONE', *, *, #292, .T. ) ;
#171 = VECTOR ( 'NONE', #114, 1000.000000000000000 ) ;
#172 = PLANE ( 'NONE',  #638 ) ;
#173 = ORIENTED_EDGE ( 'NONE', *, *, #817, .F. ) ;
#174 = EDGE_CURVE ( 'NONE', #74, #566, #713, .T. ) ;
#175 = ORIENTED_EDGE ( 'NONE', *, *, #177, .F. ) ;
#176 = CARTESIAN_POINT ( 'NONE',  ( 2.480212026877643527, 3.037383719922475370E-16, 3.000000000000000000 ) ) ;
#177 = EDGE_CURVE ( 'NONE', #378, #214, #747, .T. ) ;
#178 = ORIENTED_EDGE ( 'NONE', *, *, #360, .T. ) ;
#179 = FACE_OUTER_BOUND ( 'NONE', #129, .T. ) ;
#180 = PLANE ( 'NONE',  #865 ) ;
#181 = CARTESIAN_POINT ( 'NONE',  ( 3.950000000000000178, 3.950000000000000178, 1.000000000000000000 ) ) ;
#182 = ORIENTED_EDGE ( 'NONE', *, *, #787, .F. ) ;
#183 = TOROIDAL_SURFACE ( 'NONE', #31, 3.000000000000000000, 1.000000000000000000 ) ;
#184 = VECTOR ( 'NONE', #102, 1000.000000000000000 ) ;
#185 = PRODUCT_DEFINITION_FORMATION_WITH_SPECIFIED_SOURCE ( 'ไป', '', #496, .NOT_KNOWN. ) ;
#186 = LINE ( 'NONE', #43, #171 ) ;
#187 = FACE_OUTER_BOUND ( 'NONE', #867, .T. ) ;
#188 = ORIENTED_EDGE ( 'NONE', *, *, #751, .T. ) ;
#189 = ADVANCED_FACE ( 'NONE', ( #884 ), #194, .F. ) ;
#190 = CARTESIAN_POINT ( 'NONE',  ( 0.000000000000000000, 0.000000000000000000, 9.199999999999999289 ) ) ;
#191 = ORIENTED_EDGE ( 'NONE', *, *, #82, .T. ) ;
#192 = DIRECTION ( 'NONE',  ( 1.000000000000000000, 8.673617379884020681E-16, -0.000000000000000000 ) ) ;
#193 = EDGE_CURVE ( 'NONE', #301, #273, #409, .T. ) ;
#194 = PLANE ( 'NONE',  #491 ) ;
#195 = ORIENTED_EDGE ( 'NONE', *, *, #694, .T. ) ;
#196 = VECTOR ( 'NONE', #725, 1000.000000000000000 ) ;
#197 = VECTOR ( 'NONE', #227, 1000.000000000000000 ) ;
#198 = FACE_OUTER_BOUND ( 'NONE', #254, .T. ) ;
#199 = AXIS2_PLACEMENT_3D ( 'NONE', #451, #241, #89 ) ;
#200 = ORIENTED_EDGE ( 'NONE', *, *, #774, .F. ) ;
#201 = LINE ( 'NONE', #836, #421 ) ;
#202 = ORIENTED_EDGE ( 'NONE', *, *, #218, .T. ) ;
#203 = DIRECTION ( 'NONE',  ( 0.000000000000000000, 0.000000000000000000, 1.000000000000000000 ) ) ;
#204 = ORIENTED_EDGE ( 'NONE', *, *, #685, .T. ) ;
#205 = EDGE_CURVE ( 'NONE', #911, #566, #807, .T. ) ;
#206 = LINE ( 'NONE', #148, #832 ) ;
#207 = APPLICATION_CONTEXT ( 'automotive_design' ) ;
#208 = ORIENTED_EDGE ( 'NONE', *, *, #537, .F. ) ;
#209 = DIRECTION ( 'NONE',  ( 0.000000000000000000, -1.000000000000000000, 0.000000000000000000 ) ) ;
#210 = CARTESIAN_POINT ( 'NONE',  ( -3.950000000000001954, 0.7500000000000004441, 12.19999999999999929 ) ) ;
#211 = VECTOR ( 'NONE', #824, 1000.000000000000000 ) ;
#212 = DIRECTION ( 'NONE',  ( -0.000000000000000000, -0.000000000000000000, -1.000000000000000000 ) ) ;
#213 = VECTOR ( 'NONE', #298, 1000.000000000000000 ) ;
#214 = VERTEX_POINT ( 'NONE', #115 ) ;
#215 = DIRECTION ( 'NONE',  ( 0.000000000000000000, -1.000000000000000000, -0.000000000000000000 ) ) ;
#216 = ORIENTED_EDGE ( 'NONE', *, *, #300, .F. ) ;
#217 = LINE ( 'NONE', #1, #567 ) ;
#218 = EDGE_CURVE ( 'NONE', #878, #473, #548, .T. ) ;
#219 = PLANE ( 'NONE',  #467 ) ;
#220 = ORIENTED_EDGE ( 'NONE', *, *, #131, .T. ) ;
#221 = CARTESIAN_POINT ( 'NONE',  ( 2.950000000000000178, 3.950000000000000178, 9.199999999999999289 ) ) ;
#222 = CARTESIAN_POINT ( 'NONE',  ( 0.000000000000000000, 0.000000000000000000, 9.199999999999999289 ) ) ;
#223 = DIRECTION ( 'NONE',  ( -0.000000000000000000, -0.000000000000000000, -1.000000000000000000 ) ) ;
#224 = EDGE_CURVE ( 'NONE', #680, #800, #112, .T. ) ;
#225 = ORIENTED_EDGE ( 'NONE', *, *, #545, .T. ) ;
#226 = CARTESIAN_POINT ( 'NONE',  ( 0.000000000000000000, 0.000000000000000000, 1.000000000000000000 ) ) ;
#227 = DIRECTION ( 'NONE',  ( -0.000000000000000000, -0.000000000000000000, -1.000000000000000000 ) ) ;
#228 = DIRECTION ( 'NONE',  ( 1.000000000000000000, 0.000000000000000000, 0.000000000000000000 ) ) ;
#229 = CIRCLE ( 'NONE', #683, 2.480212026877643527 ) ;
#230 = CARTESIAN_POINT ( 'NONE',  ( 2.950000000000000178, -0.7499999999999995559, 12.19999999999999929 ) ) ;
#231 = PRESENTATION_LAYER_ASSIGNMENT (  '', '', ( #598 ) ) ;
#232 = AXIS2_PLACEMENT_3D ( 'NONE', #226, #663, #314 ) ;
#233 = CARTESIAN_POINT ( 'NONE',  ( 0.000000000000000000, 0.000000000000000000, 3.000000000000000000 ) ) ;
#234 = EDGE_CURVE ( 'NONE', #914, #899, #317, .T. ) ;
#235 = ORIENTED_EDGE ( 'NONE', *, *, #234, .T. ) ;
#236 = CARTESIAN_POINT ( 'NONE',  ( -3.950000000000000178, -3.950000000000000178, 1.000000000000000000 ) ) ;
#237 = ORIENTED_EDGE ( 'NONE', *, *, #174, .T. ) ;
#238 = EDGE_CURVE ( 'NONE', #388, #674, #881, .T. ) ;
#239 = DIRECTION ( 'NONE',  ( -1.000000000000000000, 0.000000000000000000, 0.000000000000000000 ) ) ;
#240 = DIRECTION ( 'NONE',  ( -1.000000000000000000, -8.673617379884011806E-16, 0.000000000000000000 ) ) ;
#241 = DIRECTION ( 'NONE',  ( 0.000000000000000000, 0.000000000000000000, 1.000000000000000000 ) ) ;
#242 = ORIENTED_EDGE ( 'NONE', *, *, #7, .T. ) ;
#243 = LINE ( 'NONE', #368, #275 ) ;
#244 = DIRECTION ( 'NONE',  ( 0.000000000000000000, 0.000000000000000000, 1.000000000000000000 ) ) ;
#245 = AXIS2_PLACEMENT_3D ( 'NONE', #442, #785, #450 ) ;
#246 = VERTEX_POINT ( 'NONE', #568 ) ;
#247 = AXIS2_PLACEMENT_3D ( 'NONE', #591, #312, #784 ) ;
#248 = DIRECTION ( 'NONE',  ( -0.000000000000000000, -0.000000000000000000, -1.000000000000000000 ) ) ;
#249 = ADVANCED_FACE ( 'NONE', ( #769 ), #219, .F. ) ;
#250 = CARTESIAN_POINT ( 'NONE',  ( -8.673617379884035472E-16, 8.673617379884035472E-16, 0.000000000000000000 ) ) ;
#251 = VERTEX_POINT ( 'NONE', #551 ) ;
#252 = FACE_OUTER_BOUND ( 'NONE', #842, .T. ) ;
#253 = CARTESIAN_POINT ( 'NONE',  ( 0.000000000000000000, 0.000000000000000000, 12.19999999999999929 ) ) ;
#254 = EDGE_LOOP ( 'NONE', ( #741, #802, #560, #669 ) ) ;
#255 = DIRECTION ( 'NONE',  ( 1.000000000000000000, 8.673617379884020681E-16, -0.000000000000000000 ) ) ;
#256 = LINE ( 'NONE', #332, #509 ) ;
#257 = LINE ( 'NONE', #181, #140 ) ;
#258 = VERTEX_POINT ( 'NONE', #775 ) ;
#259 = EDGE_CURVE ( 'NONE', #893, #246, #206, .T. ) ;
#260 = VECTOR ( 'NONE', #913, 1000.000000000000000 ) ;
#261 = CARTESIAN_POINT ( 'NONE',  ( 2.974999999999539124, -0.1818319606679529854, 0.0003125488433782821996 ) ) ;
#262 = B_SPLINE_CURVE_WITH_KNOTS ( 'NONE', 3,
 ( #498, #778, #147, #640 ),
 .UNSPECIFIED., .F., .F.,
 ( 4, 4 ),
 ( -1.483266576063471289E-05, 0.0005306632162348775628 ),
 .UNSPECIFIED. ) ;
#263 = CARTESIAN_POINT ( 'NONE',  ( -3.950000000000000178, 3.950000000000000178, 9.199999999999999289 ) ) ;
#264 = CARTESIAN_POINT ( 'NONE',  ( 3.950000000000000178, 3.950000000000000178, 9.199999999999999289 ) ) ;
#265 = EDGE_LOOP ( 'NONE', ( #60, #534, #434, #15, #269, #417, #95, #77 ) ) ;
#266 = EDGE_CURVE ( 'NONE', #621, #674, #540, .T. ) ;
#267 = CARTESIAN_POINT ( 'NONE',  ( -3.950000000000001066, -0.7500000000000004441, 12.19999999999999929 ) ) ;
#268 = DIRECTION ( 'NONE',  ( -0.000000000000000000, -0.000000000000000000, -1.000000000000000000 ) ) ;
#269 = ORIENTED_EDGE ( 'NONE', *, *, #843, .F. ) ;
#270 = SURFACE_STYLE_FILL_AREA ( #550 ) ;
#271 = ADVANCED_FACE ( 'NONE', ( #280 ), #916, .T. ) ;
#272 = CARTESIAN_POINT ( 'NONE',  ( 3.950000000000000178, -3.950000000000000178, 1.000000000000000000 ) ) ;
#273 = VERTEX_POINT ( 'NONE', #488 ) ;
#274 = CIRCLE ( 'NONE', #698, 2.480212026877643527 ) ;
#275 = VECTOR ( 'NONE', #97, 1000.000000000000000 ) ;
#276 = LINE ( 'NONE', #61, #197 ) ;
#277 = CARTESIAN_POINT ( 'NONE',  ( -3.950000000000001954, 0.7500000000000004441, 12.19999999999999929 ) ) ;
#278 = EDGE_CURVE ( 'NONE', #800, #770, #494, .T. ) ;
#279 = ORIENTED_EDGE ( 'NONE', *, *, #545, .F. ) ;
#280 = FACE_OUTER_BOUND ( 'NONE', #146, .T. ) ;
#281 = ORIENTED_EDGE ( 'NONE', *, *, #710, .F. ) ;
#282 = DIRECTION ( 'NONE',  ( -1.000000000000000000, -1.224646799147352468E-16, 0.000000000000000000 ) ) ;
#283 = DIRECTION ( 'NONE',  ( -0.000000000000000000, 1.000000000000000000, -0.000000000000000000 ) ) ;
#284 = ORIENTED_EDGE ( 'NONE', *, *, #286, .T. ) ;
#285 = UNCERTAINTY_MEASURE_WITH_UNIT (LENGTH_MEASURE( 1.000000000000000082E-05 ), #29, 'distance_accuracy_value', 'NONE');
#286 = EDGE_CURVE ( 'NONE', #246, #325, #499, .T. ) ;
#287 = EDGE_LOOP ( 'NONE', ( #405, #220, #546, #149 ) ) ;
#288 = VECTOR ( 'NONE', #477, 1000.000000000000000 ) ;
#289 = CARTESIAN_POINT ( 'NONE',  ( 3.950000000000000178, -3.950000000000000178, 1.000000000000000000 ) ) ;
#290 = VECTOR ( 'NONE', #588, 1000.000000000000000 ) ;
#291 = EDGE_LOOP ( 'NONE', ( #330, #141 ) ) ;
#292 = EDGE_CURVE ( 'NONE', #800, #258, #424, .T. ) ;
#293 = DIRECTION ( 'NONE',  ( 0.000000000000000000, 0.000000000000000000, -1.000000000000000000 ) ) ;
#294 = DIRECTION ( 'NONE',  ( 0.000000000000000000, 0.000000000000000000, 1.000000000000000000 ) ) ;
#295 = VERTEX_POINT ( 'NONE', #627 ) ;
#296 = FACE_OUTER_BOUND ( 'NONE', #265, .T. ) ;
#297 = PLANE ( 'NONE',  #612 ) ;
#298 = DIRECTION ( 'NONE',  ( -0.000000000000000000, 1.000000000000000000, -0.000000000000000000 ) ) ;
#299 = B_SPLINE_CURVE_WITH_KNOTS ( 'NONE', 3,
 ( #27, #261, #681, #547 ),
 .UNSPECIFIED., .F., .F.,
 ( 4, 4 ),
 ( 0.0005306632162348488314, 0.001076159098193469991 ),
 .UNSPECIFIED. ) ;
#300 = EDGE_CURVE ( 'NONE', #473, #566, #454, .T. ) ;
#301 = VERTEX_POINT ( 'NONE', #277 ) ;
#302 = DIRECTION ( 'NONE',  ( -1.000000000000000000, 0.000000000000000000, 0.000000000000000000 ) ) ;
#303 = AXIS2_PLACEMENT_3D ( 'NONE', #134, #902, #838 ) ;
#304 = ORIENTED_EDGE ( 'NONE', *, *, #224, .F. ) ;
#305 = EDGE_CURVE ( 'NONE', #839, #727, #406, .T. ) ;
#306 = AXIS2_PLACEMENT_3D ( 'NONE', #75, #293, #860 ) ;
#307 = CARTESIAN_POINT ( 'NONE',  ( -3.950000000000000178, -3.950000000000000178, 9.199999999999999289 ) ) ;
#308 = ORIENTED_EDGE ( 'NONE', *, *, #7, .F. ) ;
#309 = DIRECTION ( 'NONE',  ( 0.000000000000000000, 0.000000000000000000, 1.000000000000000000 ) ) ;
#310 = CARTESIAN_POINT ( 'NONE',  ( 3.950000000000000178, 3.950000000000000178, 1.000000000000000000 ) ) ;
#311 = VERTEX_POINT ( 'NONE', #555 ) ;
#312 = DIRECTION ( 'NONE',  ( 0.000000000000000000, 0.000000000000000000, 1.000000000000000000 ) ) ;
#313 = DIRECTION ( 'NONE',  ( -0.000000000000000000, 1.000000000000000000, -0.000000000000000000 ) ) ;
#314 = DIRECTION ( 'NONE',  ( -1.000000000000000000, 0.000000000000000000, 0.000000000000000000 ) ) ;
#315 = ORIENTED_EDGE ( 'NONE', *, *, #896, .T. ) ;
#316 = EDGE_CURVE ( 'NONE', #697, #58, #274, .T. ) ;
#317 = LINE ( 'NONE', #743, #879 ) ;
#318 = AXIS2_PLACEMENT_3D ( 'NONE', #250, #810, #474 ) ;
#319 = AXIS2_PLACEMENT_3D ( 'NONE', #40, #327, #472 ) ;
#320 = ORIENTED_EDGE ( 'NONE', *, *, #300, .T. ) ;
#321 =( GEOMETRIC_REPRESENTATION_CONTEXT ( 3 ) GLOBAL_UNCERTAINTY_ASSIGNED_CONTEXT ( ( #285 ) ) GLOBAL_UNIT_ASSIGNED_CONTEXT ( ( #29, #748, #684 ) ) REPRESENTATION_CONTEXT ( 'NONE', 'WORKASPACE' ) );
#322 = ADVANCED_FACE ( 'NONE', ( #198 ), #57, .F. ) ;
#323 = DIRECTION ( 'NONE',  ( -0.000000000000000000, -1.000000000000000000, -0.000000000000000000 ) ) ;
#324 = CARTESIAN_POINT ( 'NONE',  ( 2.950000000000000622, 0.7500000000000013323, 12.19999999999999929 ) ) ;
#325 = VERTEX_POINT ( 'NONE', #484 ) ;
#326 = CARTESIAN_POINT ( 'NONE',  ( -2.949999999999999289, -3.950000000000000178, 1.000000000000000000 ) ) ;
#327 = DIRECTION ( 'NONE',  ( -0.000000000000000000, -1.000000000000000000, -0.000000000000000000 ) ) ;
#328 = ADVANCED_FACE ( 'NONE', ( #128 ), #345, .F. ) ;
#329 = CARTESIAN_POINT ( 'NONE',  ( -2.000000000000000444, 8.673617379884033500E-16, 3.000000000000000000 ) ) ;
#330 = ORIENTED_EDGE ( 'NONE', *, *, #470, .F. ) ;
#331 = DIRECTION ( 'NONE',  ( 0.000000000000000000, 0.000000000000000000, 1.000000000000000000 ) ) ;
#332 = CARTESIAN_POINT ( 'NONE',  ( -2.480212026877643527, 0.000000000000000000, 3.000000000000000000 ) ) ;
#333 = EDGE_CURVE ( 'NONE', #85, #826, #358, .T. ) ;
#334 = ORIENTED_EDGE ( 'NONE', *, *, #470, .T. ) ;
#335 = VECTOR ( 'NONE', #796, 1000.000000000000000 ) ;
#336 = COLOUR_RGB ( '',0.7921568627450980005, 0.8196078431372548767, 0.9333333333333333481 ) ;
#337 = CARTESIAN_POINT ( 'NONE',  ( 3.950000000000001954, 0.7500000000000013323, 9.199999999999999289 ) ) ;
#338 = CARTESIAN_POINT ( 'NONE',  ( 3.950000000000002842, -0.7499999999999986677, 12.19999999999999929 ) ) ;
#339 = VERTEX_POINT ( 'NONE', #289 ) ;
#340 = EDGE_CURVE ( 'NONE', #375, #430, #654, .T. ) ;
#341 = CARTESIAN_POINT ( 'NONE',  ( 0.000000000000000000, 0.000000000000000000, 1.000000000000000000 ) ) ;
#342 = ORIENTED_EDGE ( 'NONE', *, *, #787, .T. ) ;
#343 = CYLINDRICAL_SURFACE ( 'NONE', #408, 1.000000000000000000 ) ;
#344 = EDGE_CURVE ( 'NONE', #914, #798, #765, .T. ) ;
#345 = PLANE ( 'NONE',  #580 ) ;
#346 = ORIENTED_EDGE ( 'NONE', *, *, #665, .F. ) ;
#347 = CARTESIAN_POINT ( 'NONE',  ( 2.950000000000000178, -3.950000000000000178, 1.000000000000000000 ) ) ;
#348 = AXIS2_PLACEMENT_3D ( 'NONE', #230, #513, #240 ) ;
#349 = VERTEX_POINT ( 'NONE', #907 ) ;
#350 = DIRECTION ( 'NONE',  ( 0.000000000000000000, -0.000000000000000000, -1.000000000000000000 ) ) ;
#351 = ORIENTED_EDGE ( 'NONE', *, *, #429, .T. ) ;
#352 = CARTESIAN_POINT ( 'NONE',  ( 3.950000000000000178, -0.7499999999999988898, 9.199999999999999289 ) ) ;
#353 = DIRECTION ( 'NONE',  ( 1.000000000000000000, 0.000000000000000000, 0.000000000000000000 ) ) ;
#354 = ORIENTED_EDGE ( 'NONE', *, *, #429, .F. ) ;
#355 = EDGE_CURVE ( 'NONE', #816, #821, #11, .T. ) ;
#356 = CARTESIAN_POINT ( 'NONE',  ( -2.950000000000000178, 0.5454356057317898410, 0.000000000000000000 ) ) ;
#357 = ORIENTED_EDGE ( 'NONE', *, *, #762, .T. ) ;
#358 = LINE ( 'NONE', #636, #137 ) ;
#359 = ORIENTED_EDGE ( 'NONE', *, *, #55, .F. ) ;
#360 = EDGE_CURVE ( 'NONE', #85, #66, #515, .T. ) ;
#361 = DIRECTION ( 'NONE',  ( -0.000000000000000000, 0.000000000000000000, -1.000000000000000000 ) ) ;
#362 = VECTOR ( 'NONE', #716, 1000.000000000000000 ) ;
#363 = CARTESIAN_POINT ( 'NONE',  ( 0.000000000000000000, 0.000000000000000000, 3.000000000000000000 ) ) ;
#364 = AXIS2_PLACEMENT_3D ( 'NONE', #453, #724, #91 ) ;
#365 = ORIENTED_EDGE ( 'NONE', *, *, #561, .F. ) ;
#366 = FACE_OUTER_BOUND ( 'NONE', #416, .T. ) ;
#367 = FACE_OUTER_BOUND ( 'NONE', #693, .T. ) ;
#368 = CARTESIAN_POINT ( 'NONE',  ( -3.950000000000000178, 3.950000000000000178, 1.000000000000000000 ) ) ;
#369 = DIRECTION ( 'NONE',  ( 0.000000000000000000, 0.000000000000000000, -1.000000000000000000 ) ) ;
#370 = LINE ( 'NONE', #310, #480 ) ;
#371 = ADVANCED_FACE ( 'NONE', ( #708 ), #172, .F. ) ;
#372 = CARTESIAN_POINT ( 'NONE',  ( -2.950000000000000178, 0.5454356057317898410, 0.000000000000000000 ) ) ;
#373 = DIRECTION ( 'NONE',  ( 0.000000000000000000, -1.000000000000000000, 0.000000000000000000 ) ) ;
#374 = CARTESIAN_POINT ( 'NONE',  ( 3.950000000000002842, -0.7499999999999986677, 12.19999999999999929 ) ) ;
#375 = VERTEX_POINT ( 'NONE', #572 ) ;
#376 = DIRECTION ( 'NONE',  ( -1.000000000000000000, -0.000000000000000000, -0.000000000000000000 ) ) ;
#377 = CIRCLE ( 'NONE', #245, 3.000000000000000000 ) ;
#378 = VERTEX_POINT ( 'NONE', #525 ) ;
#379 = VECTOR ( 'NONE', #255, 1000.000000000000000 ) ;
#380 = CARTESIAN_POINT ( 'NONE',  ( 2.950000000000000178, -3.950000000000000178, 0.000000000000000000 ) ) ;
#381 = ORIENTED_EDGE ( 'NONE', *, *, #506, .F. ) ;
#382 = CARTESIAN_POINT ( 'NONE',  ( -3.950000000000000178, -3.950000000000000178, 0.000000000000000000 ) ) ;
#383 = CARTESIAN_POINT ( 'NONE',  ( -8.673617379884035472E-16, 8.673617379884035472E-16, 1.000000000000000000 ) ) ;
#384 = CARTESIAN_POINT ( 'NONE',  ( 2.950000000000001066, -3.950000000000000178, 9.199999999999999289 ) ) ;
#385 = EDGE_CURVE ( 'NONE', #826, #452, #449, .T. ) ;
#386 = EDGE_LOOP ( 'NONE', ( #521, #107, #585, #883 ) ) ;
#387 = LINE ( 'NONE', #210, #510 ) ;
#388 = VERTEX_POINT ( 'NONE', #152 ) ;
#389 = ORIENTED_EDGE ( 'NONE', *, *, #177, .T. ) ;
#390 = CARTESIAN_POINT ( 'NONE',  ( 2.950000000000000178, -0.7499999999999995559, 9.199999999999999289 ) ) ;
#391 = CARTESIAN_POINT ( 'NONE',  ( -3.950000000000001954, 0.7500000000000004441, 12.19999999999999929 ) ) ;
#392 = AXIS2_PLACEMENT_3D ( 'NONE', #481, #760, #428 ) ;
#393 = CARTESIAN_POINT ( 'NONE',  ( 2.975000000000461053, 0.1818319606500826413, 0.0003125488434013318499 ) ) ;
#394 = ORIENTED_EDGE ( 'NONE', *, *, #533, .F. ) ;
#395 = VECTOR ( 'NONE', #10, 1000.000000000000000 ) ;
#396 = DIRECTION ( 'NONE',  ( 0.000000000000000000, 1.000000000000000000, 0.000000000000000000 ) ) ;
#397 = CARTESIAN_POINT ( 'NONE',  ( -3.950000000000000178, 3.950000000000000178, 1.000000000000000000 ) ) ;
#398 = ORIENTED_EDGE ( 'NONE', *, *, #482, .T. ) ;
#399 = DIRECTION ( 'NONE',  ( -0.000000000000000000, 1.000000000000000000, 0.000000000000000000 ) ) ;
#400 = EDGE_CURVE ( 'NONE', #878, #911, #479, .T. ) ;
#401 = CARTESIAN_POINT ( 'NONE',  ( -2.950000000000000178, 3.950000000000000178, 1.000000000000000000 ) ) ;
#402 = ORIENTED_EDGE ( 'NONE', *, *, #482, .F. ) ;
#403 = DIRECTION ( 'NONE',  ( 0.000000000000000000, -0.000000000000000000, -1.000000000000000000 ) ) ;
#404 = CARTESIAN_POINT ( 'NONE',  ( 2.950000000000000178, 0.5454356057317805151, 0.000000000000000000 ) ) ;
#405 = ORIENTED_EDGE ( 'NONE', *, *, #33, .F. ) ;
#406 = CIRCLE ( 'NONE', #625, 1.000000000000000000 ) ;
#407 = AXIS2_PLACEMENT_3D ( 'NONE', #754, #768, #413 ) ;
#408 = AXIS2_PLACEMENT_3D ( 'NONE', #347, #209, #626 ) ;
#409 = LINE ( 'NONE', #682, #438 ) ;
#410 = EDGE_LOOP ( 'NONE', ( #722, #225, #448, #204, #237, #216 ) ) ;
#411 = ADVANCED_FACE ( 'NONE', ( #581 ), #856, .T. ) ;
#412 = DIRECTION ( 'NONE',  ( -1.000000000000000000, 0.000000000000000000, 0.000000000000000000 ) ) ;
#413 = DIRECTION ( 'NONE',  ( 1.000000000000000000, 0.000000000000000000, -0.000000000000000000 ) ) ;
#414 = DIRECTION ( 'NONE',  ( -0.000000000000000000, -0.000000000000000000, -1.000000000000000000 ) ) ;
#415 = B_SPLINE_CURVE_WITH_KNOTS ( 'NONE', 3,
 ( #404, #605, #393, #599 ),
 .UNSPECIFIED., .F., .F.,
 ( 4, 4 ),
 ( -1.483266576063696092E-05, 0.0005306632162348488314 ),
 .UNSPECIFIED. ) ;
#416 = EDGE_LOOP ( 'NONE', ( #195, #613, #582, #389 ) ) ;
#417 = ORIENTED_EDGE ( 'NONE', *, *, #234, .F. ) ;
#418 = CARTESIAN_POINT ( 'NONE',  ( -2.949999999999999289, -0.7499999999999995559, 12.19999999999999929 ) ) ;
#419 = ORIENTED_EDGE ( 'NONE', *, *, #340, .T. ) ;
#420 = VECTOR ( 'NONE', #268, 1000.000000000000000 ) ;
#421 = VECTOR ( 'NONE', #699, 1000.000000000000000 ) ;
#422 = FILL_AREA_STYLE_COLOUR ( '', #336 ) ;
#423 = EDGE_CURVE ( 'NONE', #709, #388, #576, .T. ) ;
#424 = LINE ( 'NONE', #69, #14 ) ;
#425 = ORIENTED_EDGE ( 'NONE', *, *, #843, .T. ) ;
#426 = ORIENTED_EDGE ( 'NONE', *, *, #55, .T. ) ;
#427 = FACE_OUTER_BOUND ( 'NONE', #72, .T. ) ;
#428 = DIRECTION ( 'NONE',  ( -1.000000000000000000, -8.673617379884020681E-16, 0.000000000000000000 ) ) ;
#429 = EDGE_CURVE ( 'NONE', #301, #295, #76, .T. ) ;
#430 = VERTEX_POINT ( 'NONE', #874 ) ;
#431 = CARTESIAN_POINT ( 'NONE',  ( -2.974999999999536904, 0.1818319606679765499, 0.0003125488433781743215 ) ) ;
#432 = FACE_OUTER_BOUND ( 'NONE', #732, .T. ) ;
#433 = DIRECTION ( 'NONE',  ( -0.000000000000000000, -0.000000000000000000, -1.000000000000000000 ) ) ;
#434 = ORIENTED_EDGE ( 'NONE', *, *, #590, .F. ) ;
#435 = CARTESIAN_POINT ( 'NONE',  ( 2.950000000000000178, -0.5454356057317787387, 0.000000000000000000 ) ) ;
#436 = EDGE_CURVE ( 'NONE', #455, #620, #719, .T. ) ;
#437 = DIRECTION ( 'NONE',  ( -1.000000000000000000, 0.000000000000000000, 0.000000000000000000 ) ) ;
#438 = VECTOR ( 'NONE', #616, 1000.000000000000000 ) ;
#439 = CARTESIAN_POINT ( 'NONE',  ( -3.950000000000001954, 0.7500000000000004441, 12.19999999999999929 ) ) ;
#440 = VECTOR ( 'NONE', #87, 1000.000000000000000 ) ;
#441 = VECTOR ( 'NONE', #100, 1000.000000000000000 ) ;
#442 = CARTESIAN_POINT ( 'NONE',  ( -8.673617379884035472E-16, 8.673617379884035472E-16, 0.000000000000000000 ) ) ;
#443 = DIRECTION ( 'NONE',  ( -1.000000000000000000, 0.000000000000000000, -0.000000000000000000 ) ) ;
#444 = ADVANCED_FACE ( 'NONE', ( #799 ), #641, .F. ) ;
#445 = DIRECTION ( 'NONE',  ( 1.000000000000000000, 0.000000000000000000, 0.000000000000000000 ) ) ;
#446 = ORIENTED_EDGE ( 'NONE', *, *, #896, .F. ) ;
#447 = LINE ( 'NONE', #374, #744 ) ;
#448 = ORIENTED_EDGE ( 'NONE', *, *, #105, .F. ) ;
#449 = LINE ( 'NONE', #586, #362 ) ;
#450 = DIRECTION ( 'NONE',  ( -1.000000000000000000, 0.000000000000000000, 0.000000000000000000 ) ) ;
#451 = CARTESIAN_POINT ( 'NONE',  ( 0.000000000000000000, 0.000000000000000000, 12.19999999999999929 ) ) ;
#452 = VERTEX_POINT ( 'NONE', #84 ) ;
#453 = CARTESIAN_POINT ( 'NONE',  ( 0.000000000000000000, 0.000000000000000000, 3.000000000000000000 ) ) ;
#454 = CIRCLE ( 'NONE', #803, 2.000000000000000000 ) ;
#455 = VERTEX_POINT ( 'NONE', #167 ) ;
#456 = AXIS2_PLACEMENT_3D ( 'NONE', #508, #783, #437 ) ;
#457 = LINE ( 'NONE', #384, #395 ) ;
#458 = ORIENTED_EDGE ( 'NONE', *, *, #39, .F. ) ;
#459 = ORIENTED_EDGE ( 'NONE', *, *, #850, .F. ) ;
#460 = ORIENTED_EDGE ( 'NONE', *, *, #131, .F. ) ;
#461 = DIRECTION ( 'NONE',  ( 0.000000000000000000, 0.000000000000000000, -1.000000000000000000 ) ) ;
#462 = APPLICATION_CONTEXT ( 'automotive_design' ) ;
#463 = DIRECTION ( 'NONE',  ( -1.000000000000000000, 0.000000000000000000, -0.000000000000000000 ) ) ;
#464 = VERTEX_POINT ( 'NONE', #730 ) ;
#465 = EDGE_CURVE ( 'NONE', #325, #135, #243, .T. ) ;
#466 = DIRECTION ( 'NONE',  ( 0.000000000000000000, -1.000000000000000000, 0.000000000000000000 ) ) ;
#467 = AXIS2_PLACEMENT_3D ( 'NONE', #272, #779, #203 ) ;
#468 = VECTOR ( 'NONE', #83, 1000.000000000000000 ) ;
#469 = ORIENTED_EDGE ( 'NONE', *, *, #888, .F. ) ;
#470 = EDGE_CURVE ( 'NONE', #911, #878, #686, .T. ) ;
#471 = DIRECTION ( 'NONE',  ( -1.000000000000000000, 0.000000000000000000, 0.000000000000000000 ) ) ;
#472 = DIRECTION ( 'NONE',  ( 0.000000000000000000, 0.000000000000000000, -1.000000000000000000 ) ) ;
#473 = VERTEX_POINT ( 'NONE', #504 ) ;
#474 = DIRECTION ( 'NONE',  ( -1.000000000000000000, 0.000000000000000000, 0.000000000000000000 ) ) ;
#475 = ORIENTED_EDGE ( 'NONE', *, *, #2, .T. ) ;
#476 = CARTESIAN_POINT ( 'NONE',  ( -2.950000000000000178, 3.950000000000000178, 0.000000000000000000 ) ) ;
#477 = DIRECTION ( 'NONE',  ( 1.000000000000000000, -0.000000000000000000, -0.000000000000000000 ) ) ;
#478 = ORIENTED_EDGE ( 'NONE', *, *, #829, .T. ) ;
#479 = CIRCLE ( 'NONE', #247, 2.000000000000000444 ) ;
#480 = VECTOR ( 'NONE', #652, 1000.000000000000000 ) ;
#481 = CARTESIAN_POINT ( 'NONE',  ( -2.949999999999999289, -0.7499999999999995559, 12.19999999999999929 ) ) ;
#482 = EDGE_CURVE ( 'NONE', #816, #464, #22, .T. ) ;
#483 = ORIENTED_EDGE ( 'NONE', *, *, #26, .F. ) ;
#484 = CARTESIAN_POINT ( 'NONE',  ( 2.950000000000000178, 3.950000000000000178, 1.000000000000000000 ) ) ;
#485 = VERTEX_POINT ( 'NONE', #372 ) ;
#486 = ADVANCED_FACE ( 'NONE', ( #8 ), #861, .T. ) ;
#487 = LINE ( 'NONE', #906, #772 ) ;
#488 = CARTESIAN_POINT ( 'NONE',  ( -3.950000000000001066, -0.7500000000000004441, 12.19999999999999929 ) ) ;
#489 = ORIENTED_EDGE ( 'NONE', *, *, #278, .F. ) ;
#490 = LINE ( 'NONE', #634, #260 ) ;
#491 = AXIS2_PLACEMENT_3D ( 'NONE', #253, #532, #463 ) ;
#492 = EDGE_CURVE ( 'NONE', #680, #798, #750, .T. ) ;
#493 = AXIS2_PLACEMENT_3D ( 'NONE', #3, #661, #239 ) ;
#494 = LINE ( 'NONE', #841, #153 ) ;
#495 = ORIENTED_EDGE ( 'NONE', *, *, #863, .T. ) ;
#496 = PRODUCT ( 'PCB-1094M4', 'PCB-1094M4', '', ( #740 ) ) ;
#497 = EDGE_LOOP ( 'NONE', ( #905, #242, #489, #304, #208, #600, #351, #182 ) ) ;
#498 = CARTESIAN_POINT ( 'NONE',  ( -2.950000000000000178, -0.5454356057317880646, 0.000000000000000000 ) ) ;
#499 = LINE ( 'NONE', #138, #671 ) ;
#500 = EDGE_CURVE ( 'NONE', #566, #473, #554, .T. ) ;
#501 = ORIENTED_EDGE ( 'NONE', *, *, #436, .T. ) ;
#502 = CARTESIAN_POINT ( 'NONE',  ( -2.949999999999999734, -0.7499999999999997780, 9.199999999999999289 ) ) ;
#503 = CYLINDRICAL_SURFACE ( 'NONE', #456, 2.000000000000000000 ) ;
#504 = CARTESIAN_POINT ( 'NONE',  ( 1.999999999999999112, 1.112291097817874238E-15, 1.000000000000000000 ) ) ;
#505 = FACE_OUTER_BOUND ( 'NONE', #410, .T. ) ;
#506 = EDGE_CURVE ( 'NONE', #594, #311, #186, .T. ) ;
#507 = LINE ( 'NONE', #711, #290 ) ;
#508 = CARTESIAN_POINT ( 'NONE',  ( -8.673617379884035472E-16, 8.673617379884035472E-16, 1.000000000000000000 ) ) ;
#509 = VECTOR ( 'NONE', #543, 1000.000000000000000 ) ;
#510 = VECTOR ( 'NONE', #837, 1000.000000000000000 ) ;
#511 = CARTESIAN_POINT ( 'NONE',  ( 0.000000000000000000, 0.000000000000000000, 0.000000000000000000 ) ) ;
#512 = AXIS2_PLACEMENT_3D ( 'NONE', #522, #574, #659 ) ;
#513 = DIRECTION ( 'NONE',  ( -8.673617379884011806E-16, 1.000000000000000000, 0.000000000000000000 ) ) ;
#514 = LINE ( 'NONE', #583, #789 ) ;
#515 = LINE ( 'NONE', #162, #121 ) ;
#516 = LINE ( 'NONE', #573, #196 ) ;
#517 = DIRECTION ( 'NONE',  ( -1.000000000000000000, -0.000000000000000000, -0.000000000000000000 ) ) ;
#518 = ORIENTED_EDGE ( 'NONE', *, *, #423, .F. ) ;
#519 = ADVANCED_FACE ( 'NONE', ( #252 ), #742, .T. ) ;
#520 = CARTESIAN_POINT ( 'NONE',  ( -3.950000000000000178, 3.950000000000000178, 9.199999999999999289 ) ) ;
#521 = ORIENTED_EDGE ( 'NONE', *, *, #795, .F. ) ;
#522 = CARTESIAN_POINT ( 'NONE',  ( -2.950000000000000178, 3.950000000000000178, 9.199999999999999289 ) ) ;
#523 = ORIENTED_EDGE ( 'NONE', *, *, #465, .T. ) ;
#524 = PRODUCT_DEFINITION ( 'ๆ', '', #185, #909 ) ;
#525 = CARTESIAN_POINT ( 'NONE',  ( 3.950000000000002842, -0.7499999999999986677, 12.19999999999999929 ) ) ;
#526 = VECTOR ( 'NONE', #445, 1000.000000000000000 ) ;
#527 = CARTESIAN_POINT ( 'NONE',  ( 2.950000000000000622, 0.7500000000000015543, 9.199999999999999289 ) ) ;
#528 = VECTOR ( 'NONE', #248, 1000.000000000000000 ) ;
#529 = AXIS2_PLACEMENT_3D ( 'NONE', #630, #126, #412 ) ;
#530 = ORIENTED_EDGE ( 'NONE', *, *, #266, .T. ) ;
#531 = LINE ( 'NONE', #542, #655 ) ;
#532 = DIRECTION ( 'NONE',  ( 0.000000000000000000, 0.000000000000000000, -1.000000000000000000 ) ) ;
#533 = EDGE_CURVE ( 'NONE', #821, #339, #139, .T. ) ;
#534 = ORIENTED_EDGE ( 'NONE', *, *, #690, .T. ) ;
#535 = LINE ( 'NONE', #267, #528 ) ;
#536 = CARTESIAN_POINT ( 'NONE',  ( 1.999999999999999112, 1.112291097817874238E-15, 1.000000000000000000 ) ) ;
#537 = EDGE_CURVE ( 'NONE', #273, #680, #535, .T. ) ;
#538 = ORIENTED_EDGE ( 'NONE', *, *, #360, .F. ) ;
#539 = CARTESIAN_POINT ( 'NONE',  ( -2.950000000000000178, 3.950000000000000178, 9.199999999999999289 ) ) ;
#540 = CIRCLE ( 'NONE', #553, 1.000000000000000000 ) ;
#541 = ORIENTED_EDGE ( 'NONE', *, *, #757, .T. ) ;
#542 = CARTESIAN_POINT ( 'NONE',  ( 2.950000000000000178, -3.950000000000000178, 0.000000000000000000 ) ) ;
#543 = DIRECTION ( 'NONE',  ( -0.000000000000000000, -0.000000000000000000, -1.000000000000000000 ) ) ;
#544 = ORIENTED_EDGE ( 'NONE', *, *, #109, .T. ) ;
#545 = EDGE_CURVE ( 'NONE', #667, #776, #299, .T. ) ;
#546 = ORIENTED_EDGE ( 'NONE', *, *, #316, .T. ) ;
#547 = CARTESIAN_POINT ( 'NONE',  ( 2.950000000000000178, -0.5454356057317787387, 0.000000000000000000 ) ) ;
#548 = LINE ( 'NONE', #536, #47 ) ;
#549 = ORIENTED_EDGE ( 'NONE', *, *, #355, .F. ) ;
#550 = FILL_AREA_STYLE ('',( #422 ) ) ;
#551 = CARTESIAN_POINT ( 'NONE',  ( 2.950000000000001066, -3.950000000000000178, 9.199999999999999289 ) ) ;
#552 = ORIENTED_EDGE ( 'NONE', *, *, #863, .F. ) ;
#553 = AXIS2_PLACEMENT_3D ( 'NONE', #692, #845, #64 ) ;
#554 = CIRCLE ( 'NONE', #32, 2.000000000000000000 ) ;
#555 = CARTESIAN_POINT ( 'NONE',  ( 2.950000000000001066, -3.950000000000000178, 1.000000000000000000 ) ) ;
#556 = EDGE_LOOP ( 'NONE', ( #394, #687, #279, #720, #365, #917, #200 ) ) ;
#557 = FACE_OUTER_BOUND ( 'NONE', #854, .T. ) ;
#558 =( NAMED_UNIT ( * ) SI_UNIT ( $, .STERADIAN. ) SOLID_ANGLE_UNIT ( ) );
#559 = DIRECTION ( 'NONE',  ( 1.000000000000000000, 0.000000000000000000, 0.000000000000000000 ) ) ;
#560 = ORIENTED_EDGE ( 'NONE', *, *, #618, .F. ) ;
#561 = EDGE_CURVE ( 'NONE', #727, #349, #531, .T. ) ;
#562 = DIRECTION ( 'NONE',  ( -1.000000000000000000, 0.000000000000000000, 0.000000000000000000 ) ) ;
#563 = ORIENTED_EDGE ( 'NONE', *, *, #355, .T. ) ;
#564 = LINE ( 'NONE', #849, #904 ) ;
#565 = VECTOR ( 'NONE', #313, 1000.000000000000000 ) ;
#566 = VERTEX_POINT ( 'NONE', #48 ) ;
#567 = VECTOR ( 'NONE', #570, 1000.000000000000000 ) ;
#568 = CARTESIAN_POINT ( 'NONE',  ( 2.950000000000000178, 3.950000000000000178, 9.199999999999999289 ) ) ;
#569 = VERTEX_POINT ( 'NONE', #337 ) ;
#570 = DIRECTION ( 'NONE',  ( -1.097926250618232396E-16, 1.000000000000000000, 0.000000000000000000 ) ) ;
#571 = EDGE_CURVE ( 'NONE', #452, #620, #828, .T. ) ;
#572 = CARTESIAN_POINT ( 'NONE',  ( -2.480212026877643527, 0.000000000000000000, 3.000000000000000000 ) ) ;
#573 = CARTESIAN_POINT ( 'NONE',  ( -2.950000000000000178, 3.950000000000000178, 9.199999999999999289 ) ) ;
#574 = DIRECTION ( 'NONE',  ( -1.000000000000000000, -1.097926250618232396E-16, 0.000000000000000000 ) ) ;
#575 = FACE_BOUND ( 'NONE', #691, .T. ) ;
#576 = LINE ( 'NONE', #520, #880 ) ;
#577 = ADVANCED_BREP_SHAPE_REPRESENTATION ( 'PCB-1094M4', ( #607, #731 ), #321 ) ;
#578 = EDGE_LOOP ( 'NONE', ( #660, #589, #446, #165, #653, #175, #676, #749 ) ) ;
#579 = FACE_OUTER_BOUND ( 'NONE', #386, .T. ) ;
#580 = AXIS2_PLACEMENT_3D ( 'NONE', #623, #705, #350 ) ;
#581 = FACE_OUTER_BOUND ( 'NONE', #766, .T. ) ;
#582 = ORIENTED_EDGE ( 'NONE', *, *, #99, .T. ) ;
#583 = CARTESIAN_POINT ( 'NONE',  ( -2.949999999999999734, 0.7500000000000004441, 12.19999999999999929 ) ) ;
#584 = ADVANCED_FACE ( 'NONE', ( #179 ), #809, .F. ) ;
#585 = ORIENTED_EDGE ( 'NONE', *, *, #62, .T. ) ;
#586 = CARTESIAN_POINT ( 'NONE',  ( 2.950000000000000178, -0.7499999999999995559, 12.19999999999999929 ) ) ;
#587 = CARTESIAN_POINT ( 'NONE',  ( 2.950000000000000178, 3.950000000000000178, 9.199999999999999289 ) ) ;
#588 = DIRECTION ( 'NONE',  ( 0.000000000000000000, -1.000000000000000000, 0.000000000000000000 ) ) ;
#589 = ORIENTED_EDGE ( 'NONE', *, *, #774, .T. ) ;
#590 = EDGE_CURVE ( 'NONE', #709, #135, #38, .T. ) ;
#591 = CARTESIAN_POINT ( 'NONE',  ( 0.000000000000000000, 0.000000000000000000, 3.000000000000000000 ) ) ;
#592 = CARTESIAN_POINT ( 'NONE',  ( -2.950000000000000178, 3.950000000000000178, 0.000000000000000000 ) ) ;
#593 = FACE_OUTER_BOUND ( 'NONE', #745, .T. ) ;
#594 = VERTEX_POINT ( 'NONE', #326 ) ;
#595 = CLOSED_SHELL ( 'NONE', ( #723, #885, #615, #486, #670, #650, #444, #119, #271, #873, #249, #328, #371, #584, #658, #834, #811, #136, #322, #189, #166, #70, #822, #628, #411, #519, #737, #20 ) ) ;
#596 = AXIS2_PLACEMENT_3D ( 'NONE', #887, #466, #403 ) ;
#597 = DIRECTION ( 'NONE',  ( -2.891205793294678326E-16, 1.000000000000000000, -0.000000000000000000 ) ) ;
#598 = STYLED_ITEM ( 'NONE', ( #764 ), #607 ) ;
#599 = CARTESIAN_POINT ( 'NONE',  ( 2.974999999999998757, -1.507938362238315272E-11, 0.0003125488433897481797 ) ) ;
#600 = ORIENTED_EDGE ( 'NONE', *, *, #193, .F. ) ;
#601 = EDGE_CURVE ( 'NONE', #899, #301, #387, .T. ) ;
#602 = DIRECTION ( 'NONE',  ( -0.000000000000000000, -0.000000000000000000, -1.000000000000000000 ) ) ;
#603 = EDGE_LOOP ( 'NONE', ( #342, #606, #544, #662 ) ) ;
#604 = DIRECTION ( 'NONE',  ( 0.000000000000000000, -0.000000000000000000, -1.000000000000000000 ) ) ;
#605 = CARTESIAN_POINT ( 'NONE',  ( 2.966375967126771762, 0.3643425640663495169, -5.970229286916398370E-14 ) ) ;
#606 = ORIENTED_EDGE ( 'NONE', *, *, #829, .F. ) ;
#607 = MANIFOLD_SOLID_BREP ( '\X2\570689d2\X0\2', #595 ) ;
#608 = CARTESIAN_POINT ( 'NONE',  ( -2.949999999999999289, -0.7499999999999995559, 9.199999999999999289 ) ) ;
#609 = LINE ( 'NONE', #539, #818 ) ;
#610 = CIRCLE ( 'NONE', #771, 1.000000000000000000 ) ;
#611 = SHAPE_DEFINITION_REPRESENTATION ( #793, #577 ) ;
#612 = AXIS2_PLACEMENT_3D ( 'NONE', #222, #361, #645 ) ;
#613 = ORIENTED_EDGE ( 'NONE', *, *, #333, .T. ) ;
#614 = AXIS2_PLACEMENT_3D ( 'NONE', #233, #794, #161 ) ;
#615 = ADVANCED_FACE ( 'NONE', ( #427 ), #900, .F. ) ;
#616 = DIRECTION ( 'NONE',  ( 5.782411586589353694E-16, -1.000000000000000000, -0.000000000000000000 ) ) ;
#617 = ORIENTED_EDGE ( 'NONE', *, *, #533, .T. ) ;
#618 = EDGE_CURVE ( 'NONE', #273, #914, #487, .T. ) ;
#619 = DIRECTION ( 'NONE',  ( -1.000000000000000000, 0.000000000000000000, 0.000000000000000000 ) ) ;
#620 = VERTEX_POINT ( 'NONE', #352 ) ;
#621 = VERTEX_POINT ( 'NONE', #476 ) ;
#622 =( LENGTH_UNIT ( ) NAMED_UNIT ( * ) SI_UNIT ( .MILLI., .METRE. ) );
#623 = CARTESIAN_POINT ( 'NONE',  ( -3.950000000000000178, 3.950000000000000178, 1.000000000000000000 ) ) ;
#624 = ORIENTED_EDGE ( 'NONE', *, *, #278, .T. ) ;
#625 = AXIS2_PLACEMENT_3D ( 'NONE', #897, #283, #73 ) ;
#626 = DIRECTION ( 'NONE',  ( 0.000000000000000000, 0.000000000000000000, -1.000000000000000000 ) ) ;
#627 = CARTESIAN_POINT ( 'NONE',  ( -3.950000000000000178, 0.7500000000000006661, 9.199999999999999289 ) ) ;
#628 = ADVANCED_FACE ( 'NONE', ( #759, #133 ), #695, .T. ) ;
#629 = ORIENTED_EDGE ( 'NONE', *, *, #292, .F. ) ;
#630 = CARTESIAN_POINT ( 'NONE',  ( -8.673617379884035472E-16, 8.673617379884035472E-16, 1.000000000000000000 ) ) ;
#631 = CARTESIAN_POINT ( 'NONE',  ( -8.673617379884035472E-16, 8.673617379884035472E-16, 1.000000000000000000 ) ) ;
#632 = CARTESIAN_POINT ( 'NONE',  ( -8.673617379884035472E-16, 8.673617379884035472E-16, 1.000000000000000000 ) ) ;
#633 = ORIENTED_EDGE ( 'NONE', *, *, #305, .T. ) ;
#634 = CARTESIAN_POINT ( 'NONE',  ( 3.950000000000000178, 3.950000000000000178, 9.199999999999999289 ) ) ;
#635 = ORIENTED_EDGE ( 'NONE', *, *, #571, .F. ) ;
#636 = CARTESIAN_POINT ( 'NONE',  ( 2.950000000000000622, 0.7500000000000013323, 12.19999999999999929 ) ) ;
#637 = ORIENTED_EDGE ( 'NONE', *, *, #82, .F. ) ;
#638 = AXIS2_PLACEMENT_3D ( 'NONE', #805, #17, #649 ) ;
#639 = AXIS2_PLACEMENT_3D ( 'NONE', #363, #294, #228 ) ;
#640 = CARTESIAN_POINT ( 'NONE',  ( -2.974999999999998757, 1.510358250160157189E-11, 0.0003125488433898221223 ) ) ;
#641 = PLANE ( 'NONE',  #493 ) ;
#642 = ORIENTED_EDGE ( 'NONE', *, *, #193, .T. ) ;
#643 = PLANE ( 'NONE',  #199 ) ;
#644 = EDGE_CURVE ( 'NONE', #214, #569, #276, .T. ) ;
#645 = DIRECTION ( 'NONE',  ( -1.000000000000000000, 0.000000000000000000, 0.000000000000000000 ) ) ;
#646 = CARTESIAN_POINT ( 'NONE',  ( -2.950000000000000178, 3.950000000000000178, 0.000000000000000000 ) ) ;
#647 = LINE ( 'NONE', #592, #565 ) ;
#648 = PLANE ( 'NONE',  #512 ) ;
#649 = DIRECTION ( 'NONE',  ( 0.000000000000000000, 0.000000000000000000, -1.000000000000000000 ) ) ;
#650 = ADVANCED_FACE ( 'NONE', ( #151 ), #297, .F. ) ;
#651 = CARTESIAN_POINT ( 'NONE',  ( 0.000000000000000000, 0.000000000000000000, 3.000000000000000000 ) ) ;
#652 = DIRECTION ( 'NONE',  ( 0.000000000000000000, 1.000000000000000000, 0.000000000000000000 ) ) ;
#653 = ORIENTED_EDGE ( 'NONE', *, *, #644, .F. ) ;
#654 = CIRCLE ( 'NONE', #303, 2.480212026877643527 ) ;
#655 = VECTOR ( 'NONE', #823, 1000.000000000000000 ) ;
#656 = DIRECTION ( 'NONE',  ( -0.000000000000000000, -0.000000000000000000, -1.000000000000000000 ) ) ;
#657 = DIRECTION ( 'NONE',  ( -0.000000000000000000, -1.000000000000000000, -0.000000000000000000 ) ) ;
#658 = ADVANCED_FACE ( 'NONE', ( #432 ), #503, .F. ) ;
#659 = DIRECTION ( 'NONE',  ( 1.097926250618232396E-16, -1.000000000000000000, 0.000000000000000000 ) ) ;
#660 = ORIENTED_EDGE ( 'NONE', *, *, #155, .T. ) ;
#661 = DIRECTION ( 'NONE',  ( -0.000000000000000000, 0.000000000000000000, -1.000000000000000000 ) ) ;
#662 = ORIENTED_EDGE ( 'NONE', *, *, #423, .T. ) ;
#663 = DIRECTION ( 'NONE',  ( -0.000000000000000000, -0.000000000000000000, 1.000000000000000000 ) ) ;
#664 = ORIENTED_EDGE ( 'NONE', *, *, #710, .T. ) ;
#665 = EDGE_CURVE ( 'NONE', #258, #594, #707, .T. ) ;
#666 = CARTESIAN_POINT ( 'NONE',  ( -2.950000000000000178, 3.950000000000000178, 9.199999999999999289 ) ) ;
#667 = VERTEX_POINT ( 'NONE', #852 ) ;
#668 = DIRECTION ( 'NONE',  ( 0.000000000000000000, 0.000000000000000000, 1.000000000000000000 ) ) ;
#669 = ORIENTED_EDGE ( 'NONE', *, *, #537, .T. ) ;
#670 = ADVANCED_FACE ( 'NONE', ( #367, #575 ), #6, .F. ) ;
#671 = VECTOR ( 'NONE', #433, 1000.000000000000000 ) ;
#672 = DIRECTION ( 'NONE',  ( -5.782411586589356653E-16, 1.000000000000000000, 0.000000000000000000 ) ) ;
#673 = AXIS2_PLACEMENT_3D ( 'NONE', #877, #24, #871 ) ;
#674 = VERTEX_POINT ( 'NONE', #855 ) ;
#675 = PLANE ( 'NONE',  #890 ) ;
#676 = ORIENTED_EDGE ( 'NONE', *, *, #888, .T. ) ;
#677 = CARTESIAN_POINT ( 'NONE',  ( 2.950000000000000178, -3.950000000000000178, 1.000000000000000000 ) ) ;
#678 = CARTESIAN_POINT ( 'NONE',  ( 3.950000000000000178, -3.950000000000000178, 1.000000000000000000 ) ) ;
#679 = APPLICATION_PROTOCOL_DEFINITION ( 'draft international standard', 'automotive_design', 1998, #207 ) ;
#680 = VERTEX_POINT ( 'NONE', #790 ) ;
#681 = CARTESIAN_POINT ( 'NONE',  ( 2.966375967124581514, -0.3643425640784879183, 4.396676983815356667E-17 ) ) ;
#682 = CARTESIAN_POINT ( 'NONE',  ( -3.950000000000001066, -0.7500000000000004441, 12.19999999999999929 ) ) ;
#683 = AXIS2_PLACEMENT_3D ( 'NONE', #651, #244, #858 ) ;
#684 =( NAMED_UNIT ( * ) SI_UNIT ( $, .STERADIAN. ) SOLID_ANGLE_UNIT ( ) );
#685 = EDGE_CURVE ( 'NONE', #464, #74, #262, .T. ) ;
#686 = CIRCLE ( 'NONE', #639, 2.000000000000000444 ) ;
#687 = ORIENTED_EDGE ( 'NONE', *, *, #762, .F. ) ;
#688 = DIRECTION ( 'NONE',  ( -0.000000000000000000, -0.000000000000000000, -1.000000000000000000 ) ) ;
#689 = ORIENTED_EDGE ( 'NONE', *, *, #286, .F. ) ;
#690 = EDGE_CURVE ( 'NONE', #594, #135, #217, .T. ) ;
#691 = EDGE_LOOP ( 'NONE', ( #552, #889 ) ) ;
#692 = CARTESIAN_POINT ( 'NONE',  ( -2.950000000000000178, 3.950000000000000178, 1.000000000000000000 ) ) ;
#693 = EDGE_LOOP ( 'NONE', ( #459, #523, #90, #702 ) ) ;
#694 = EDGE_CURVE ( 'NONE', #214, #85, #201, .T. ) ;
#695 = PLANE ( 'NONE',  #407 ) ;
#696 = DIRECTION ( 'NONE',  ( -0.000000000000000000, -0.000000000000000000, -1.000000000000000000 ) ) ;
#697 = VERTEX_POINT ( 'NONE', #763 ) ;
#698 = AXIS2_PLACEMENT_3D ( 'NONE', #341, #143, #619 ) ;
#699 = DIRECTION ( 'NONE',  ( -1.000000000000000000, 0.000000000000000000, 0.000000000000000000 ) ) ;
#700 =( NAMED_UNIT ( * ) PLANE_ANGLE_UNIT ( ) SI_UNIT ( $, .RADIAN. ) );
#701 = DIRECTION ( 'NONE',  ( -0.000000000000000000, 0.000000000000000000, 1.000000000000000000 ) ) ;
#702 = ORIENTED_EDGE ( 'NONE', *, *, #506, .T. ) ;
#703 = CARTESIAN_POINT ( 'NONE',  ( -2.966375967125213897, 0.3643425640785587505, -4.977345578278467740E-14 ) ) ;
#704 = ORIENTED_EDGE ( 'NONE', *, *, #500, .F. ) ;
#705 = DIRECTION ( 'NONE',  ( 0.000000000000000000, -1.000000000000000000, 0.000000000000000000 ) ) ;
#706 = EDGE_LOOP ( 'NONE', ( #767, #538, #734, #756 ) ) ;
#707 = LINE ( 'NONE', #714, #468 ) ;
#708 = FACE_OUTER_BOUND ( 'NONE', #497, .T. ) ;
#709 = VERTEX_POINT ( 'NONE', #145 ) ;
#710 = EDGE_CURVE ( 'NONE', #452, #251, #130, .T. ) ;
#711 = CARTESIAN_POINT ( 'NONE',  ( -3.950000000000000178, 3.950000000000000178, 9.199999999999999289 ) ) ;
#712 = VECTOR ( 'NONE', #414, 1000.000000000000000 ) ;
#713 = CIRCLE ( 'NONE', #319, 1.000000000000000000 ) ;
#714 = CARTESIAN_POINT ( 'NONE',  ( -2.949999999999999289, -3.950000000000000178, 9.199999999999999289 ) ) ;
#715 = VECTOR ( 'NONE', #302, 1000.000000000000000 ) ;
#716 = DIRECTION ( 'NONE',  ( -0.000000000000000000, -0.000000000000000000, -1.000000000000000000 ) ) ;
#717 = ORIENTED_EDGE ( 'NONE', *, *, #571, .T. ) ;
#718 = PLANE ( 'NONE',  #110 ) ;
#719 = LINE ( 'NONE', #870, #213 ) ;
#720 = ORIENTED_EDGE ( 'NONE', *, *, #912, .F. ) ;
#721 = CARTESIAN_POINT ( 'NONE',  ( 3.950000000000001954, 0.7500000000000013323, 9.199999999999999289 ) ) ;
#722 = ORIENTED_EDGE ( 'NONE', *, *, #746, .F. ) ;
#723 = ADVANCED_FACE ( 'NONE', ( #557 ), #919, .T. ) ;
#724 = DIRECTION ( 'NONE',  ( -0.000000000000000000, -0.000000000000000000, -1.000000000000000000 ) ) ;
#725 = DIRECTION ( 'NONE',  ( -1.097926250618232273E-16, 1.000000000000000000, -0.000000000000000000 ) ) ;
#726 = DIRECTION ( 'NONE',  ( -1.000000000000000000, -0.000000000000000000, -0.000000000000000000 ) ) ;
#727 = VERTEX_POINT ( 'NONE', #59 ) ;
#728 = VECTOR ( 'NONE', #373, 1000.000000000000000 ) ;
#729 = AXIS2_PLACEMENT_3D ( 'NONE', #677, #323, #891 ) ;
#730 = CARTESIAN_POINT ( 'NONE',  ( -2.950000000000000178, -0.5454356057317880646, 0.000000000000000000 ) ) ;
#731 = AXIS2_PLACEMENT_3D ( 'NONE', #825, #668, #50 ) ;
#732 = EDGE_LOOP ( 'NONE', ( #851, #53, #120, #28 ) ) ;
#733 = PLANE ( 'NONE',  #673 ) ;
#734 = ORIENTED_EDGE ( 'NONE', *, *, #694, .F. ) ;
#735 = DIRECTION ( 'NONE',  ( 0.000000000000000000, -0.000000000000000000, 1.000000000000000000 ) ) ;
#736 = PLANE ( 'NONE',  #348 ) ;
#737 = ADVANCED_FACE ( 'NONE', ( #142 ), #343, .T. ) ;
#738 = ORIENTED_EDGE ( 'NONE', *, *, #751, .F. ) ;
#739 = FACE_OUTER_BOUND ( 'NONE', #706, .T. ) ;
#740 = PRODUCT_CONTEXT ( 'NONE', #462, 'mechanical' ) ;
#741 = ORIENTED_EDGE ( 'NONE', *, *, #492, .T. ) ;
#742 = CYLINDRICAL_SURFACE ( 'NONE', #804, 1.000000000000000000 ) ;
#743 = CARTESIAN_POINT ( 'NONE',  ( -2.949999999999999734, 0.7500000000000004441, 12.19999999999999929 ) ) ;
#744 = VECTOR ( 'NONE', #13, 1000.000000000000000 ) ;
#745 = EDGE_LOOP ( 'NONE', ( #284, #753, #168, #281, #827, #116, #178, #458 ) ) ;
#746 = EDGE_CURVE ( 'NONE', #667, #473, #156, .T. ) ;
#747 = LINE ( 'NONE', #338, #108 ) ;
#748 =( NAMED_UNIT ( * ) PLANE_ANGLE_UNIT ( ) SI_UNIT ( $, .RADIAN. ) );
#749 = ORIENTED_EDGE ( 'NONE', *, *, #436, .F. ) ;
#750 = LINE ( 'NONE', #608, #379 ) ;
#751 = EDGE_CURVE ( 'NONE', #74, #485, #160, .T. ) ;
#752 = PLANE ( 'NONE',  #596 ) ;
#753 = ORIENTED_EDGE ( 'NONE', *, *, #850, .T. ) ;
#754 = CARTESIAN_POINT ( 'NONE',  ( 0.000000000000000000, 0.000000000000000000, 3.000000000000000000 ) ) ;
#755 = LINE ( 'NONE', #176, #788 ) ;
#756 = ORIENTED_EDGE ( 'NONE', *, *, #644, .T. ) ;
#757 = EDGE_CURVE ( 'NONE', #569, #893, #490, .T. ) ;
#758 = ORIENTED_EDGE ( 'NONE', *, *, #224, .T. ) ;
#759 = FACE_OUTER_BOUND ( 'NONE', #30, .T. ) ;
#760 = DIRECTION ( 'NONE',  ( -8.673617379884020681E-16, 1.000000000000000000, 0.000000000000000000 ) ) ;
#761 = ORIENTED_EDGE ( 'NONE', *, *, #795, .T. ) ;
#762 = EDGE_CURVE ( 'NONE', #776, #821, #564, .T. ) ;
#763 = CARTESIAN_POINT ( 'NONE',  ( 2.480212026877643527, 3.037383719922475370E-16, 1.000000000000000000 ) ) ;
#764 = PRESENTATION_STYLE_ASSIGNMENT (( #844 ) ) ;
#765 = LINE ( 'NONE', #418, #918 ) ;
#766 = EDGE_LOOP ( 'NONE', ( #460, #895, #808, #495 ) ) ;
#767 = ORIENTED_EDGE ( 'NONE', *, *, #817, .T. ) ;
#768 = DIRECTION ( 'NONE',  ( 0.000000000000000000, 0.000000000000000000, 1.000000000000000000 ) ) ;
#769 = FACE_OUTER_BOUND ( 'NONE', #578, .T. ) ;
#770 = VERTEX_POINT ( 'NONE', #236 ) ;
#771 = AXIS2_PLACEMENT_3D ( 'NONE', #875, #657, #309 ) ;
#772 = VECTOR ( 'NONE', #192, 1000.000000000000000 ) ;
#773 = CARTESIAN_POINT ( 'NONE',  ( -2.974999999999998757, 1.510358250160157189E-11, 0.0003125488433898221223 ) ) ;
#774 = EDGE_CURVE ( 'NONE', #339, #839, #370, .T. ) ;
#775 = CARTESIAN_POINT ( 'NONE',  ( -2.949999999999999289, -3.950000000000000178, 9.199999999999999289 ) ) ;
#776 = VERTEX_POINT ( 'NONE', #435 ) ;
#777 = ORIENTED_EDGE ( 'NONE', *, *, #618, .T. ) ;
#778 = CARTESIAN_POINT ( 'NONE',  ( -2.966375967125689517, -0.3643425640662515397, 1.199740294449970523E-16 ) ) ;
#779 = DIRECTION ( 'NONE',  ( -1.000000000000000000, 0.000000000000000000, 0.000000000000000000 ) ) ;
#780 = PRODUCT_RELATED_PRODUCT_CATEGORY ( 'part', '', ( #496 ) ) ;
#781 = ORIENTED_EDGE ( 'NONE', *, *, #259, .T. ) ;
#782 = CARTESIAN_POINT ( 'NONE',  ( 3.950000000000000178, 3.950000000000000178, 1.000000000000000000 ) ) ;
#783 = DIRECTION ( 'NONE',  ( -0.000000000000000000, -0.000000000000000000, -1.000000000000000000 ) ) ;
#784 = DIRECTION ( 'NONE',  ( 1.000000000000000000, 0.000000000000000000, 0.000000000000000000 ) ) ;
#785 = DIRECTION ( 'NONE',  ( -0.000000000000000000, -0.000000000000000000, 1.000000000000000000 ) ) ;
#786 = CARTESIAN_POINT ( 'NONE',  ( 0.000000000000000000, 0.000000000000000000, 0.000000000000000000 ) ) ;
#787 = EDGE_CURVE ( 'NONE', #388, #295, #507, .T. ) ;
#788 = VECTOR ( 'NONE', #688, 1000.000000000000000 ) ;
#789 = VECTOR ( 'NONE', #801, 1000.000000000000000 ) ;
#790 = CARTESIAN_POINT ( 'NONE',  ( -3.950000000000000178, -0.7499999999999997780, 9.199999999999999289 ) ) ;
#791 = DIRECTION ( 'NONE',  ( 0.000000000000000000, 0.000000000000000000, -1.000000000000000000 ) ) ;
#792 = CARTESIAN_POINT ( 'NONE',  ( -2.974999999999998757, 1.510358250160157189E-11, 0.0003125488433898221223 ) ) ;
#793 = PRODUCT_DEFINITION_SHAPE ( 'NONE', 'NONE',  #524 ) ;
#794 = DIRECTION ( 'NONE',  ( -0.000000000000000000, -0.000000000000000000, -1.000000000000000000 ) ) ;
#795 = EDGE_CURVE ( 'NONE', #727, #621, #150, .T. ) ;
#796 = DIRECTION ( 'NONE',  ( 1.097926250618232273E-16, -1.000000000000000000, 0.000000000000000000 ) ) ;
#797 = CARTESIAN_POINT ( 'NONE',  ( -3.950000000000001954, 0.7500000000000004441, 9.199999999999999289 ) ) ;
#798 = VERTEX_POINT ( 'NONE', #502 ) ;
#799 = FACE_OUTER_BOUND ( 'NONE', #56, .T. ) ;
#800 = VERTEX_POINT ( 'NONE', #307 ) ;
#801 = DIRECTION ( 'NONE',  ( -0.000000000000000000, -0.000000000000000000, -1.000000000000000000 ) ) ;
#802 = ORIENTED_EDGE ( 'NONE', *, *, #344, .F. ) ;
#803 = AXIS2_PLACEMENT_3D ( 'NONE', #632, #52, #833 ) ;
#804 = AXIS2_PLACEMENT_3D ( 'NONE', #117, #399, #331 ) ;
#805 = CARTESIAN_POINT ( 'NONE',  ( -3.950000000000000178, -3.950000000000000178, 1.000000000000000000 ) ) ;
#806 = VECTOR ( 'NONE', #726, 1000.000000000000000 ) ;
#807 = LINE ( 'NONE', #44, #420 ) ;
#808 = ORIENTED_EDGE ( 'NONE', *, *, #92, .T. ) ;
#809 = PLANE ( 'NONE',  #903 ) ;
#810 = DIRECTION ( 'NONE',  ( -0.000000000000000000, -0.000000000000000000, 1.000000000000000000 ) ) ;
#811 = ADVANCED_FACE ( 'NONE', ( #593 ), #733, .F. ) ;
#812 = ORIENTED_EDGE ( 'NONE', *, *, #912, .T. ) ;
#813 = DIRECTION ( 'NONE',  ( 1.000000000000000000, 8.673617379884012792E-16, 0.000000000000000000 ) ) ;
#814 = DIRECTION ( 'NONE',  ( 0.000000000000000000, -1.000000000000000000, 0.000000000000000000 ) ) ;
#815 = APPLICATION_PROTOCOL_DEFINITION ( 'draft international standard', 'automotive_design', 1998, #462 ) ;
#816 = VERTEX_POINT ( 'NONE', #859 ) ;
#817 = EDGE_CURVE ( 'NONE', #569, #66, #94, .T. ) ;
#818 = VECTOR ( 'NONE', #36, 1000.000000000000000 ) ;
#819 = MECHANICAL_DESIGN_GEOMETRIC_PRESENTATION_REPRESENTATION (  '', ( #598 ), #866 ) ;
#820 = DIRECTION ( 'NONE',  ( -0.000000000000000000, 0.000000000000000000, 1.000000000000000000 ) ) ;
#821 = VERTEX_POINT ( 'NONE', #380 ) ;
#822 = ADVANCED_FACE ( 'NONE', ( #366 ), #643, .T. ) ;
#823 = DIRECTION ( 'NONE',  ( 0.000000000000000000, -1.000000000000000000, -0.000000000000000000 ) ) ;
#824 = DIRECTION ( 'NONE',  ( 1.000000000000000000, 8.673617379884012792E-16, 0.000000000000000000 ) ) ;
#825 = CARTESIAN_POINT ( 'NONE',  ( 0.000000000000000000, 0.000000000000000000, 0.000000000000000000 ) ) ;
#826 = VERTEX_POINT ( 'NONE', #80 ) ;
#827 = ORIENTED_EDGE ( 'NONE', *, *, #385, .F. ) ;
#828 = LINE ( 'NONE', #390, #96 ) ;
#829 = EDGE_CURVE ( 'NONE', #9, #295, #5, .T. ) ;
#830 = FACE_OUTER_BOUND ( 'NONE', #603, .T. ) ;
#831 = ORIENTED_EDGE ( 'NONE', *, *, #259, .F. ) ;
#832 = VECTOR ( 'NONE', #562, 1000.000000000000000 ) ;
#833 = DIRECTION ( 'NONE',  ( -1.000000000000000000, 0.000000000000000000, 0.000000000000000000 ) ) ;
#834 = ADVANCED_FACE ( 'NONE', ( #296 ), #648, .F. ) ;
#835 = ORIENTED_EDGE ( 'NONE', *, *, #33, .T. ) ;
#836 = CARTESIAN_POINT ( 'NONE',  ( 3.950000000000001954, 0.7500000000000013323, 12.19999999999999929 ) ) ;
#837 = DIRECTION ( 'NONE',  ( -1.000000000000000000, -0.000000000000000000, -0.000000000000000000 ) ) ;
#838 = DIRECTION ( 'NONE',  ( 1.000000000000000000, 0.000000000000000000, 0.000000000000000000 ) ) ;
#839 = VERTEX_POINT ( 'NONE', #782 ) ;
#840 = CARTESIAN_POINT ( 'NONE',  ( 2.999999999999999112, 1.234755777732609386E-15, 1.000000000000000000 ) ) ;
#841 = CARTESIAN_POINT ( 'NONE',  ( -3.950000000000000178, -3.950000000000000178, 1.000000000000000000 ) ) ;
#842 = EDGE_LOOP ( 'NONE', ( #127, #483, #738, #101, #402, #359, #308 ) ) ;
#843 = EDGE_CURVE ( 'NONE', #899, #9, #514, .T. ) ;
#844 = SURFACE_STYLE_USAGE ( .BOTH. , #915 ) ;
#845 = DIRECTION ( 'NONE',  ( -0.000000000000000000, 1.000000000000000000, -0.000000000000000000 ) ) ;
#846 = EDGE_LOOP ( 'NONE', ( #717, #469, #42, #46 ) ) ;
#847 = VECTOR ( 'NONE', #602, 1000.000000000000000 ) ;
#848 = VECTOR ( 'NONE', #656, 1000.000000000000000 ) ;
#849 = CARTESIAN_POINT ( 'NONE',  ( 2.950000000000000178, -3.950000000000000178, 0.000000000000000000 ) ) ;
#850 = EDGE_CURVE ( 'NONE', #325, #311, #169, .T. ) ;
#851 = ORIENTED_EDGE ( 'NONE', *, *, #218, .F. ) ;
#852 = CARTESIAN_POINT ( 'NONE',  ( 2.974999999999998757, -1.507938362238315272E-11, 0.0003125488433897481797 ) ) ;
#853 = CARTESIAN_POINT ( 'NONE',  ( 0.000000000000000000, 0.000000000000000000, 9.199999999999999289 ) ) ;
#854 = EDGE_LOOP ( 'NONE', ( #812, #872, #704, #132, #188, #88 ) ) ;
#855 = CARTESIAN_POINT ( 'NONE',  ( -3.950000000000000178, 3.950000000000000178, 1.000000000000000000 ) ) ;
#856 = CYLINDRICAL_SURFACE ( 'NONE', #364, 2.480212026877643527 ) ;
#857 = EDGE_CURVE ( 'NONE', #251, #311, #457, .T. ) ;
#858 = DIRECTION ( 'NONE',  ( 1.000000000000000000, 0.000000000000000000, 0.000000000000000000 ) ) ;
#859 = CARTESIAN_POINT ( 'NONE',  ( -2.950000000000000178, -3.950000000000000178, 0.000000000000000000 ) ) ;
#860 = DIRECTION ( 'NONE',  ( -1.000000000000000000, 0.000000000000000000, -0.000000000000000000 ) ) ;
#861 = PLANE ( 'NONE',  #79 ) ;
#862 = CARTESIAN_POINT ( 'NONE',  ( -2.949999999999999734, 0.7500000000000004441, 9.199999999999999289 ) ) ;
#863 = EDGE_CURVE ( 'NONE', #58, #697, #124, .T. ) ;
#864 = CARTESIAN_POINT ( 'NONE',  ( 2.950000000000000622, 3.238882439323786203E-16, 1.000000000000000000 ) ) ;
#865 = AXIS2_PLACEMENT_3D ( 'NONE', #190, #820, #123 ) ;
#866 =( GEOMETRIC_REPRESENTATION_CONTEXT ( 3 ) GLOBAL_UNCERTAINTY_ASSIGNED_CONTEXT ( ( #876 ) ) GLOBAL_UNIT_ASSIGNED_CONTEXT ( ( #622, #700, #558 ) ) REPRESENTATION_CONTEXT ( 'NONE', 'WORKASPACE' ) );
#867 = EDGE_LOOP ( 'NONE', ( #478, #354, #125, #425 ) ) ;
#868 = CYLINDRICAL_SURFACE ( 'NONE', #614, 2.480212026877643527 ) ;
#869 = ORIENTED_EDGE ( 'NONE', *, *, #105, .T. ) ;
#870 = CARTESIAN_POINT ( 'NONE',  ( 3.950000000000000178, 3.950000000000000178, 9.199999999999999289 ) ) ;
#871 = DIRECTION ( 'NONE',  ( -1.097926250618232396E-16, 1.000000000000000000, 0.000000000000000000 ) ) ;
#872 = ORIENTED_EDGE ( 'NONE', *, *, #746, .T. ) ;
#873 = ADVANCED_FACE ( 'NONE', ( #579 ), #718, .T. ) ;
#874 = CARTESIAN_POINT ( 'NONE',  ( 2.480212026877643527, 3.037383719922475370E-16, 3.000000000000000000 ) ) ;
#875 = CARTESIAN_POINT ( 'NONE',  ( -2.950000000000000178, -3.950000000000000178, 1.000000000000000000 ) ) ;
#876 = UNCERTAINTY_MEASURE_WITH_UNIT (LENGTH_MEASURE( 1.000000000000000082E-05 ), #622, 'distance_accuracy_value', 'NONE');
#877 = CARTESIAN_POINT ( 'NONE',  ( 2.950000000000000178, 3.950000000000000178, 9.199999999999999289 ) ) ;
#878 = VERTEX_POINT ( 'NONE', #164 ) ;
#879 = VECTOR ( 'NONE', #597, 1000.000000000000000 ) ;
#880 = VECTOR ( 'NONE', #376, 1000.000000000000000 ) ;
#881 = LINE ( 'NONE', #397, #712 ) ;
#882 = DIRECTION ( 'NONE',  ( -0.000000000000000000, -0.000000000000000000, -1.000000000000000000 ) ) ;
#883 = ORIENTED_EDGE ( 'NONE', *, *, #26, .T. ) ;
#884 = FACE_OUTER_BOUND ( 'NONE', #71, .T. ) ;
#885 = ADVANCED_FACE ( 'NONE', ( #86 ), #868, .T. ) ;
#886 = ORIENTED_EDGE ( 'NONE', *, *, #601, .T. ) ;
#887 = CARTESIAN_POINT ( 'NONE',  ( 3.950000000000001954, 0.7500000000000013323, 12.19999999999999929 ) ) ;
#888 = EDGE_CURVE ( 'NONE', #378, #620, #447, .T. ) ;
#889 = ORIENTED_EDGE ( 'NONE', *, *, #316, .F. ) ;
#890 = AXIS2_PLACEMENT_3D ( 'NONE', #391, #106, #604 ) ;
#891 = DIRECTION ( 'NONE',  ( 0.000000000000000000, 0.000000000000000000, 1.000000000000000000 ) ) ;
#892 = DIRECTION ( 'NONE',  ( -0.000000000000000000, -0.000000000000000000, -1.000000000000000000 ) ) ;
#893 = VERTEX_POINT ( 'NONE', #264 ) ;
#894 = LINE ( 'NONE', #49, #211 ) ;
#895 = ORIENTED_EDGE ( 'NONE', *, *, #340, .F. ) ;
#896 = EDGE_CURVE ( 'NONE', #893, #839, #257, .T. ) ;
#897 = CARTESIAN_POINT ( 'NONE',  ( 2.950000000000000178, 3.950000000000000178, 1.000000000000000000 ) ) ;
#898 = EDGE_LOOP ( 'NONE', ( #315, #633, #761, #530, #908, #518, #104, #51, #689, #831 ) ) ;
#899 = VERTEX_POINT ( 'NONE', #41 ) ;
#900 = CYLINDRICAL_SURFACE ( 'NONE', #65, 2.000000000000000000 ) ;
#901 = CIRCLE ( 'NONE', #318, 3.000000000000000000 ) ;
#902 = DIRECTION ( 'NONE',  ( 0.000000000000000000, 0.000000000000000000, 1.000000000000000000 ) ) ;
#903 = AXIS2_PLACEMENT_3D ( 'NONE', #111, #396, #735 ) ;
#904 = VECTOR ( 'NONE', #215, 1000.000000000000000 ) ;
#905 = ORIENTED_EDGE ( 'NONE', *, *, #238, .T. ) ;
#906 = CARTESIAN_POINT ( 'NONE',  ( -2.949999999999999289, -0.7499999999999995559, 12.19999999999999929 ) ) ;
#907 = CARTESIAN_POINT ( 'NONE',  ( 2.950000000000000178, 0.5454356057317805151, 0.000000000000000000 ) ) ;
#908 = ORIENTED_EDGE ( 'NONE', *, *, #238, .F. ) ;
#909 = PRODUCT_DEFINITION_CONTEXT ( 'detailed design', #207, 'design' ) ;
#910 = DIRECTION ( 'NONE',  ( -2.891205793294676847E-16, -1.000000000000000000, 0.000000000000000000 ) ) ;
#911 = VERTEX_POINT ( 'NONE', #329 ) ;
#912 = EDGE_CURVE ( 'NONE', #349, #667, #415, .T. ) ;
#913 = DIRECTION ( 'NONE',  ( -0.000000000000000000, 1.000000000000000000, -0.000000000000000000 ) ) ;
#914 = VERTEX_POINT ( 'NONE', #45 ) ;
#915 = SURFACE_SIDE_STYLE ('',( #270 ) ) ;
#916 = PLANE ( 'NONE',  #63 ) ;
#917 = ORIENTED_EDGE ( 'NONE', *, *, #305, .F. ) ;
#918 = VECTOR ( 'NONE', #696, 1000.000000000000000 ) ;
#919 = TOROIDAL_SURFACE ( 'NONE', #529, 3.000000000000000000, 1.000000000000000000 ) ;
ENDSEC;
END-ISO-10303-21;
